<svg width="256" height="212" xmlns="http://www.w3.org/2000/svg" preserveAspectRatio="xMidYMid"><path d="M0 32.6916h59.8507v17.6031H0V32.6916zM0 0h59.8507v17.6031H0V0zm107.3792 65.1316H0v17.6032h103.3556c11.3163 0 37.721.2514 47.5285 16.0943v-9.8075c-4.778-15.5913-18.8605-23.89-43.505-23.89zm.2514 32.6916H0v17.6031h103.3556c25.1473 0 40.9902 1.006 47.5285 4.5265v-7.7956c-5.0295-12.3222-26.1533-14.334-43.2535-14.334zm-.2514 82.9862H0v-17.6031h103.3556c11.3163 0 37.721-.2515 47.5285-16.0943v9.8075c-4.778 15.5913-18.8605 23.89-43.505 23.89zm.2514-32.6915H0v-17.6032h103.3556c25.1473 0 40.9902-1.0059 47.5285-4.5265v7.7957c-5.0295 12.3222-26.1533 14.334-43.2535 14.334zm69.4067 63.1198H256v-10.8133h-76.6994c-6.7898 0-22.8841-.2515-28.668-9.556v6.0353c2.7662 9.3046 11.3163 14.334 26.4047 14.334zm-.2514-19.8664h78.9626V180.558h-76.448c-15.3398 0-24.8958-.503-28.6679-2.7663v4.778c3.0177 7.5442 15.8428 8.8016 26.1533 8.8016z" fill="#fff"/></svg>