<svg width="256" height="184" version="1" xmlns="http://www.w3.org/2000/svg" preserveAspectRatio="xMidYMid"><path fill="#EB2926" d="M21 0h33v25H21z"/><path fill="#F26925" d="M55 0h69v25H55z"/><path fill="#A8CF38" d="M126 0h129v25H126z"/><path fill="#F26925" d="M168 53h59v25h-59z"/><path fill="#EB2926" d="M105 53h61v25h-61z"/><path fill="#F26925" d="M22 105h59v25H22z"/><path fill="#0BB1DC" d="M83 105h83v25H83z"/><path fill="#EB2926" d="M168 105h86v25h-86z"/><path fill="#FBEC06" d="M110 158h72v25h-72z"/><path fill="#0BB1DC" d="M184 158h41v25h-41z"/><path fill="#A8CF38" d="M1 158h107v25H1z"/><path fill="#0BB1DC" d="M2 53h101v25H2z"/></svg>