<?xml version="1.0" encoding="UTF-8" standalone="no"?>
<svg width="317px" height="436px" viewBox="0 0 317 436" version="1.1" xmlns="http://www.w3.org/2000/svg" xmlns:xlink="http://www.w3.org/1999/xlink">
    <!-- Generator: Sketch 3.6.1 (26313) - http://www.bohemiancoding.com/sketch -->
    <title>Group</title>
    <desc>Created with Sketch.</desc>
    <defs>
        <linearGradient x1="38.7231815%" y1="1.65218414%" x2="55.7334824%" y2="71.6327543%" id="linearGradient-1">
            <stop stop-color="#AA4D56" offset="0%"></stop>
            <stop stop-color="#F28D89" offset="58.78%"></stop>
            <stop stop-color="#F58E92" offset="100%"></stop>
        </linearGradient>
        <linearGradient x1="59.2710237%" y1="108.511458%" x2="35.3319302%" y2="25.6215244%" id="linearGradient-2">
            <stop stop-color="#D06D6C" offset="15.34%"></stop>
            <stop stop-color="#B44B62" offset="100%"></stop>
        </linearGradient>
        <linearGradient x1="53.3566971%" y1="5.58201103%" x2="47.503455%" y2="94.7430591%" id="linearGradient-3">
            <stop stop-color="#AA6269" offset="0%"></stop>
            <stop stop-color="#F0877F" offset="57.39%"></stop>
            <stop stop-color="#C6696D" offset="100%"></stop>
        </linearGradient>
        <linearGradient x1="35.9828658%" y1="26.731883%" x2="68.7772441%" y2="115.859467%" id="linearGradient-4">
            <stop stop-color="#A76067" offset="24.34%"></stop>
            <stop stop-color="#F0877F" offset="57.39%"></stop>
            <stop stop-color="#BC6368" offset="79.82%"></stop>
        </linearGradient>
        <linearGradient x1="0.0325061187%" y1="49.9706596%" x2="100.032571%" y2="49.9706596%" id="linearGradient-5">
            <stop stop-color="#8C5975" offset="0%"></stop>
            <stop stop-color="#AA6269" offset="28.46%"></stop>
            <stop stop-color="#D6706F" offset="61.57%"></stop>
            <stop stop-color="#BA5B65" offset="100%"></stop>
        </linearGradient>
        <linearGradient x1="0.0981343284%" y1="49.9080429%" x2="100.098507%" y2="49.9080429%" id="linearGradient-6">
            <stop stop-color="#8C5975" offset="0%"></stop>
            <stop stop-color="#AA6269" offset="28.46%"></stop>
            <stop stop-color="#F0877F" offset="57.39%"></stop>
            <stop stop-color="#C6696D" offset="100%"></stop>
        </linearGradient>
        <linearGradient x1="3.89383327%" y1="57.9942018%" x2="63.889214%" y2="49.625878%" id="linearGradient-7">
            <stop stop-color="#EFA37C" offset="0%"></stop>
            <stop stop-color="#EE807C" offset="15.34%"></stop>
            <stop stop-color="#F28686" offset="55.37%"></stop>
            <stop stop-color="#F58E92" offset="100%"></stop>
        </linearGradient>
        <linearGradient x1="0.140828261%" y1="49.7989926%" x2="100.140058%" y2="49.7989926%" id="linearGradient-8">
            <stop stop-color="#AA4D56" offset="0%"></stop>
            <stop stop-color="#F28D89" offset="58.78%"></stop>
            <stop stop-color="#F58E92" offset="100%"></stop>
        </linearGradient>
        <linearGradient x1="0.0337944107%" y1="49.8283241%" x2="100.033804%" y2="49.8283241%" id="linearGradient-9">
            <stop stop-color="#EFA37C" offset="0%"></stop>
            <stop stop-color="#F0877F" offset="15.34%"></stop>
            <stop stop-color="#CF6F73" offset="55.37%"></stop>
            <stop stop-color="#B44B62" offset="100%"></stop>
        </linearGradient>
        <linearGradient x1="0.0624482498%" y1="49.9166789%" x2="100.062307%" y2="49.9166789%" id="linearGradient-10">
            <stop stop-color="#8C5975" offset="0%"></stop>
            <stop stop-color="#AA6269" offset="42.38%"></stop>
            <stop stop-color="#9D5E75" offset="100%"></stop>
        </linearGradient>
        <radialGradient cx="50.547137%" cy="48.9287978%" fx="50.547137%" fy="48.9287978%" r="52.0349002%" id="radialGradient-11">
            <stop stop-color="#232547" offset="0%"></stop>
            <stop stop-color="#212440" offset="100%"></stop>
        </radialGradient>
        <linearGradient x1="25.0025641%" y1="24.8066176%" x2="51.1423077%" y2="90.0029412%" id="linearGradient-12">
            <stop stop-color="#AA6269" offset="0%"></stop>
            <stop stop-color="#C6696D" offset="100%"></stop>
        </linearGradient>
        <linearGradient x1="0.0567245711%" y1="49.9677513%" x2="100.194061%" y2="49.9677513%" id="linearGradient-13">
            <stop stop-color="#EFA37C" offset="0%"></stop>
            <stop stop-color="#F0877F" offset="15.34%"></stop>
            <stop stop-color="#F28D89" offset="55.37%"></stop>
            <stop stop-color="#F58E92" offset="100%"></stop>
        </linearGradient>
        <linearGradient x1="0.593582718%" y1="49.4024874%" x2="100.593754%" y2="49.4024874%" id="linearGradient-14">
            <stop stop-color="#F1A07D" offset="0%"></stop>
            <stop stop-color="#F7A7A1" offset="100%"></stop>
        </linearGradient>
        <linearGradient x1="0.426371354%" y1="49.3375689%" x2="100.00645%" y2="49.3375689%" id="linearGradient-15">
            <stop stop-color="#EF827D" offset="0%"></stop>
            <stop stop-color="#F79F9C" offset="100%"></stop>
        </linearGradient>
        <linearGradient x1="-0.0871057293%" y1="49.3763785%" x2="101.196217%" y2="49.3763785%" id="linearGradient-16">
            <stop stop-color="#EF827D" offset="0%"></stop>
            <stop stop-color="#F79F9C" offset="100%"></stop>
        </linearGradient>
        <linearGradient x1="1.17833333%" y1="49.4435987%" x2="100.486667%" y2="49.4435987%" id="linearGradient-17">
            <stop stop-color="#F3AA81" offset="0%"></stop>
            <stop stop-color="#FCCCB2" offset="100%"></stop>
        </linearGradient>
        <linearGradient x1="0.733921908%" y1="49.4513674%" x2="99.8779584%" y2="49.4513674%" id="linearGradient-18">
            <stop stop-color="#F3AA81" offset="0%"></stop>
            <stop stop-color="#FCCCB2" offset="100%"></stop>
        </linearGradient>
        <linearGradient x1="-0.491895348%" y1="49.461077%" x2="100.271027%" y2="49.461077%" id="linearGradient-19">
            <stop stop-color="#F3AA81" offset="0%"></stop>
            <stop stop-color="#FCCCB2" offset="100%"></stop>
        </linearGradient>
        <linearGradient x1="0.430333551%" y1="49.4416897%" x2="99.7781509%" y2="49.4416897%" id="linearGradient-20">
            <stop stop-color="#F3AA81" offset="0%"></stop>
            <stop stop-color="#FCCCB2" offset="100%"></stop>
        </linearGradient>
        <linearGradient x1="0.414516129%" y1="49.4640625%" x2="100.417742%" y2="49.4640625%" id="linearGradient-21">
            <stop stop-color="#F3AA81" offset="0%"></stop>
            <stop stop-color="#FCCCB2" offset="100%"></stop>
        </linearGradient>
        <linearGradient x1="118.588842%" y1="92.8510704%" x2="37.3625651%" y2="12.7176681%" id="linearGradient-22">
            <stop stop-color="#8C5975" offset="0%"></stop>
            <stop stop-color="#AA6269" offset="28.46%"></stop>
            <stop stop-color="#C57274" offset="51.46%"></stop>
            <stop stop-color="#B65B6B" offset="100%"></stop>
        </linearGradient>
        <linearGradient x1="-0.635794573%" y1="49.4524742%" x2="99.9480901%" y2="49.4524742%" id="linearGradient-23">
            <stop stop-color="#F1A07D" offset="0%"></stop>
            <stop stop-color="#F7A7A1" offset="100%"></stop>
        </linearGradient>
        <linearGradient x1="0.0755654488%" y1="49.4560407%" x2="100.238546%" y2="49.4560407%" id="linearGradient-24">
            <stop stop-color="#F1A07D" offset="0%"></stop>
            <stop stop-color="#F7A7A1" offset="100%"></stop>
        </linearGradient>
        <linearGradient x1="0.601546391%" y1="49.4422764%" x2="102.393037%" y2="49.4422764%" id="linearGradient-25">
            <stop stop-color="#F1A07D" offset="0%"></stop>
            <stop stop-color="#F7A7A1" offset="100%"></stop>
        </linearGradient>
        <linearGradient x1="0.543555994%" y1="49.4330153%" x2="100.233578%" y2="49.4330153%" id="linearGradient-26">
            <stop stop-color="#F1A07D" offset="0%"></stop>
            <stop stop-color="#F7A7A1" offset="100%"></stop>
        </linearGradient>
        <linearGradient x1="0.515874942%" y1="49.3832637%" x2="100.514576%" y2="49.3832637%" id="linearGradient-27">
            <stop stop-color="#F1A07D" offset="0%"></stop>
            <stop stop-color="#F7A7A1" offset="100%"></stop>
        </linearGradient>
        <linearGradient x1="66.6628528%" y1="0.0137014332%" x2="40.7464318%" y2="105.545435%" id="linearGradient-28">
            <stop stop-color="#F3C187" offset="0%"></stop>
            <stop stop-color="#F0877F" offset="15.34%"></stop>
            <stop stop-color="#D76B8C" offset="55.37%"></stop>
            <stop stop-color="#4D3657" offset="100%"></stop>
        </linearGradient>
        <linearGradient x1="108.598193%" y1="56.3961039%" x2="48.3572289%" y2="49.3616883%" id="linearGradient-29">
            <stop stop-color="#C96B86" offset="0%"></stop>
            <stop stop-color="#943E5B" offset="61.44%"></stop>
        </linearGradient>
        <linearGradient x1="275.490619%" y1="5.92960828%" x2="4.67672097%" y2="71.2237102%" id="linearGradient-30">
            <stop stop-color="#D76B8C" offset="0%"></stop>
            <stop stop-color="#4D3657" offset="100%"></stop>
        </linearGradient>
        <linearGradient x1="72.4766022%" y1="2.95831103%" x2="8.24909145%" y2="98.4268169%" id="linearGradient-31">
            <stop stop-color="#B25A7E" offset="55.37%"></stop>
            <stop stop-color="#4D3657" offset="100%"></stop>
        </linearGradient>
        <linearGradient x1="0.0802124791%" y1="49.949927%" x2="100.079672%" y2="49.949927%" id="linearGradient-32">
            <stop stop-color="#943E5D" offset="0%"></stop>
            <stop stop-color="#943E5B" offset="61.44%"></stop>
        </linearGradient>
        <linearGradient x1="0.255072464%" y1="49.6845918%" x2="100.087319%" y2="49.6845918%" id="linearGradient-33">
            <stop stop-color="#AA5A72" offset="0%"></stop>
            <stop stop-color="#943E5B" offset="61.44%"></stop>
        </linearGradient>
        <linearGradient x1="0.0699507622%" y1="49.8901323%" x2="100.070075%" y2="49.8901323%" id="linearGradient-34">
            <stop stop-color="#773F58" offset="0%"></stop>
            <stop stop-color="#584063" offset="100%"></stop>
        </linearGradient>
        <linearGradient x1="0.124357107%" y1="49.930426%" x2="100.124211%" y2="49.930426%" id="linearGradient-35">
            <stop stop-color="#C96B86" offset="0%"></stop>
            <stop stop-color="#943E5B" offset="61.44%"></stop>
        </linearGradient>
        <linearGradient x1="90.0196297%" y1="69.5741548%" x2="-1.75741678%" y2="15.6068963%" id="linearGradient-36">
            <stop stop-color="#C96B86" offset="0%"></stop>
            <stop stop-color="#943E5B" offset="61.44%"></stop>
        </linearGradient>
        <linearGradient x1="91.317197%" y1="21.3132129%" x2="13.0246939%" y2="85.2466648%" id="linearGradient-37">
            <stop stop-color="#8D4561" offset="0%"></stop>
            <stop stop-color="#4D3657" offset="100%"></stop>
        </linearGradient>
        <linearGradient x1="63.7967768%" y1="-48.9157285%" x2="44.1711946%" y2="112.509106%" id="linearGradient-38">
            <stop stop-color="#F0877F" offset="0%"></stop>
            <stop stop-color="#C95E70" offset="100%"></stop>
        </linearGradient>
        <linearGradient x1="58.6195695%" y1="-56.8205824%" x2="49.8133072%" y2="96.1998832%" id="linearGradient-39">
            <stop stop-color="#F0877F" offset="0%"></stop>
            <stop stop-color="#C95E70" offset="100%"></stop>
        </linearGradient>
        <linearGradient x1="0.0631067961%" y1="49.8816408%" x2="100.062864%" y2="49.8816408%" id="linearGradient-40">
            <stop stop-color="#773F58" offset="0%"></stop>
            <stop stop-color="#584063" offset="100%"></stop>
        </linearGradient>
        <linearGradient x1="71.4237785%" y1="13.2392062%" x2="4.40130293%" y2="110.652478%" id="linearGradient-41">
            <stop stop-color="#C96B86" offset="0%"></stop>
            <stop stop-color="#943E5B" offset="61.44%"></stop>
        </linearGradient>
        <linearGradient x1="0.0557235421%" y1="49.9306688%" x2="100.05594%" y2="49.9306688%" id="linearGradient-42">
            <stop stop-color="#C96B86" offset="0%"></stop>
            <stop stop-color="#AA4969" offset="61.44%"></stop>
        </linearGradient>
        <linearGradient x1="0.0641104758%" y1="49.8070038%" x2="100.06401%" y2="49.8070038%" id="linearGradient-43">
            <stop stop-color="#EF827D" offset="0%"></stop>
            <stop stop-color="#F79F9C" offset="100%"></stop>
        </linearGradient>
        <linearGradient x1="0.0832167898%" y1="49.8027522%" x2="100.083106%" y2="49.8027522%" id="linearGradient-44">
            <stop stop-color="#F0877F" offset="0%"></stop>
            <stop stop-color="#F79F9C" offset="100%"></stop>
        </linearGradient>
        <linearGradient x1="0.0911683646%" y1="49.7550449%" x2="100.091509%" y2="49.7550449%" id="linearGradient-45">
            <stop stop-color="#F0877F" offset="0%"></stop>
            <stop stop-color="#F79F9C" offset="100%"></stop>
        </linearGradient>
        <linearGradient x1="0.115486726%" y1="49.4915268%" x2="100.115044%" y2="49.4915268%" id="linearGradient-46">
            <stop stop-color="#F2A28A" offset="0%"></stop>
            <stop stop-color="#F79F9C" offset="100%"></stop>
        </linearGradient>
        <linearGradient x1="0.246666667%" y1="49.4283333%" x2="100.246667%" y2="49.4283333%" id="linearGradient-47">
            <stop stop-color="#F3AA8D" offset="0%"></stop>
            <stop stop-color="#FBC0AC" offset="100%"></stop>
        </linearGradient>
        <linearGradient x1="0.234550221%" y1="49.6794759%" x2="100.235037%" y2="49.6794759%" id="linearGradient-48">
            <stop stop-color="#F3AA8D" offset="0%"></stop>
            <stop stop-color="#FBC0AC" offset="100%"></stop>
        </linearGradient>
        <linearGradient x1="0.176870748%" y1="49.5765432%" x2="100.176871%" y2="49.5765432%" id="linearGradient-49">
            <stop stop-color="#F2A28A" offset="0%"></stop>
            <stop stop-color="#F79F9C" offset="100%"></stop>
        </linearGradient>
        <linearGradient x1="0.171710526%" y1="49.322473%" x2="100.171711%" y2="49.322473%" id="linearGradient-50">
            <stop stop-color="#EF827D" offset="0%"></stop>
            <stop stop-color="#F79F9C" offset="100%"></stop>
        </linearGradient>
        <linearGradient x1="0.253398058%" y1="49.1897469%" x2="100.254369%" y2="49.1897469%" id="linearGradient-51">
            <stop stop-color="#EF827D" offset="0%"></stop>
            <stop stop-color="#F79F9C" offset="100%"></stop>
        </linearGradient>
        <linearGradient x1="0.308333333%" y1="49.1316456%" x2="100.310714%" y2="49.1316456%" id="linearGradient-52">
            <stop stop-color="#EF827D" offset="0%"></stop>
            <stop stop-color="#F79F9C" offset="100%"></stop>
        </linearGradient>
        <linearGradient x1="0.170394737%" y1="49.3116253%" x2="100.169737%" y2="49.3116253%" id="linearGradient-53">
            <stop stop-color="#F0877F" offset="0%"></stop>
            <stop stop-color="#F79F9C" offset="100%"></stop>
        </linearGradient>
        <linearGradient x1="0.250485437%" y1="49.1769352%" x2="100.250485%" y2="49.1769352%" id="linearGradient-54">
            <stop stop-color="#F0877F" offset="0%"></stop>
            <stop stop-color="#F79F9C" offset="100%"></stop>
        </linearGradient>
        <linearGradient x1="0.308333333%" y1="49.1316456%" x2="100.307143%" y2="49.1316456%" id="linearGradient-55">
            <stop stop-color="#F0877F" offset="0%"></stop>
            <stop stop-color="#F79F9C" offset="100%"></stop>
        </linearGradient>
        <linearGradient x1="0.144444444%" y1="49.4005735%" x2="100.142778%" y2="49.4005735%" id="linearGradient-56">
            <stop stop-color="#404067" offset="31.93%"></stop>
            <stop stop-color="#232547" offset="59.13%"></stop>
            <stop stop-color="#212440" offset="100%"></stop>
        </linearGradient>
        <linearGradient x1="-0.327241702%" y1="49.5868554%" x2="100.171579%" y2="49.5868554%" id="linearGradient-57">
            <stop stop-color="#F19D6F" offset="0%"></stop>
            <stop stop-color="#F9B6A8" offset="100%"></stop>
        </linearGradient>
        <linearGradient x1="0.491396977%" y1="49.6283416%" x2="100.204522%" y2="49.6283416%" id="linearGradient-58">
            <stop stop-color="#D1676A" offset="0%"></stop>
            <stop stop-color="#E37E88" offset="100%"></stop>
        </linearGradient>
        <linearGradient x1="0.248379002%" y1="49.6551233%" x2="100.459673%" y2="49.6551233%" id="linearGradient-59">
            <stop stop-color="#EF827D" offset="0%"></stop>
            <stop stop-color="#F79F9C" offset="100%"></stop>
        </linearGradient>
        <linearGradient x1="1.41302388%" y1="49.6444117%" x2="100.760856%" y2="49.6444117%" id="linearGradient-60">
            <stop stop-color="#EF827D" offset="0%"></stop>
            <stop stop-color="#E2878C" offset="100%"></stop>
        </linearGradient>
        <linearGradient x1="0.927686478%" y1="49.6370593%" x2="100.7979%" y2="49.6370593%" id="linearGradient-61">
            <stop stop-color="#EF827D" offset="0%"></stop>
            <stop stop-color="#F79F9C" offset="100%"></stop>
        </linearGradient>
        <linearGradient x1="0.739840891%" y1="49.6219643%" x2="100.894411%" y2="49.6219643%" id="linearGradient-62">
            <stop stop-color="#EF827D" offset="0%"></stop>
            <stop stop-color="#F79F9C" offset="100%"></stop>
        </linearGradient>
        <linearGradient x1="0.173751602%" y1="49.538141%" x2="100.709671%" y2="49.538141%" id="linearGradient-63">
            <stop stop-color="#EF827D" offset="0%"></stop>
            <stop stop-color="#E2878C" offset="100%"></stop>
        </linearGradient>
        <linearGradient x1="0.351140535%" y1="49.4467742%" x2="100.350563%" y2="49.4467742%" id="linearGradient-64">
            <stop stop-color="#D1676A" offset="0%"></stop>
            <stop stop-color="#E37E88" offset="100%"></stop>
        </linearGradient>
        <linearGradient x1="0.77479964%" y1="49.5821596%" x2="100.421092%" y2="49.5821596%" id="linearGradient-65">
            <stop stop-color="#EA8E79" offset="0%"></stop>
            <stop stop-color="#F9B6A8" offset="100%"></stop>
        </linearGradient>
        <linearGradient x1="0.770804619%" y1="49.5714559%" x2="100.647558%" y2="49.5714559%" id="linearGradient-66">
            <stop stop-color="#EF827D" offset="0%"></stop>
            <stop stop-color="#F79F9C" offset="100%"></stop>
        </linearGradient>
        <linearGradient x1="0.701026322%" y1="49.518532%" x2="100.701301%" y2="49.518532%" id="linearGradient-67">
            <stop stop-color="#EF827D" offset="0%"></stop>
            <stop stop-color="#E2878C" offset="100%"></stop>
        </linearGradient>
        <linearGradient x1="0.656603774%" y1="49.5053583%" x2="100.654088%" y2="49.5053583%" id="linearGradient-68">
            <stop stop-color="#EF827D" offset="0%"></stop>
            <stop stop-color="#E2878C" offset="100%"></stop>
        </linearGradient>
        <linearGradient x1="80.82913%" y1="-8.18654354%" x2="21.5432854%" y2="110.30863%" id="linearGradient-69">
            <stop stop-color="#EFA37C" offset="0%"></stop>
            <stop stop-color="#DF7E77" offset="43.08%"></stop>
        </linearGradient>
        <linearGradient x1="-0.0133648939%" y1="49.6165135%" x2="100.233745%" y2="49.6165135%" id="linearGradient-70">
            <stop stop-color="#F19D6F" offset="0%"></stop>
            <stop stop-color="#F9B6A8" offset="100%"></stop>
        </linearGradient>
        <linearGradient x1="0.6925216%" y1="49.653905%" x2="100.860158%" y2="49.653905%" id="linearGradient-71">
            <stop stop-color="#F19D6F" offset="0%"></stop>
            <stop stop-color="#F9B6A8" offset="100%"></stop>
        </linearGradient>
        <linearGradient x1="-0.133211605%" y1="49.5818445%" x2="100.318472%" y2="49.5818445%" id="linearGradient-72">
            <stop stop-color="#F1A07D" offset="0%"></stop>
            <stop stop-color="#F7A7A1" offset="100%"></stop>
        </linearGradient>
        <linearGradient x1="0.931911846%" y1="49.525968%" x2="100.768787%" y2="49.525968%" id="linearGradient-73">
            <stop stop-color="#F19D6F" offset="0%"></stop>
            <stop stop-color="#F9B6A8" offset="100%"></stop>
        </linearGradient>
        <linearGradient x1="0.318022191%" y1="49.5086509%" x2="100.318689%" y2="49.5086509%" id="linearGradient-74">
            <stop stop-color="#F19D6F" offset="0%"></stop>
            <stop stop-color="#F9B6A8" offset="100%"></stop>
        </linearGradient>
        <linearGradient x1="0.325950749%" y1="49.4818183%" x2="100.326023%" y2="49.4818183%" id="linearGradient-75">
            <stop stop-color="#F19D6F" offset="0%"></stop>
            <stop stop-color="#F9B6A8" offset="100%"></stop>
        </linearGradient>
        <linearGradient x1="0.374910251%" y1="49.545622%" x2="100.371938%" y2="49.545622%" id="linearGradient-76">
            <stop stop-color="#F19D6F" offset="0%"></stop>
            <stop stop-color="#F9B6A8" offset="100%"></stop>
        </linearGradient>
        <linearGradient x1="0.699008287%" y1="49.5602564%" x2="100.695404%" y2="49.5602564%" id="linearGradient-77">
            <stop stop-color="#F19D6F" offset="0%"></stop>
            <stop stop-color="#F9B6A8" offset="100%"></stop>
        </linearGradient>
        <linearGradient x1="1.86043735%" y1="49.4086207%" x2="101.860319%" y2="49.4086207%" id="linearGradient-78">
            <stop stop-color="#F19D6F" offset="0%"></stop>
            <stop stop-color="#F9B6A8" offset="100%"></stop>
        </linearGradient>
        <linearGradient x1="0.144525944%" y1="49.5637215%" x2="100.146512%" y2="49.5637215%" id="linearGradient-79">
            <stop stop-color="#C35C65" offset="0%"></stop>
            <stop stop-color="#CA6174" offset="100%"></stop>
        </linearGradient>
        <linearGradient x1="1.00239668%" y1="49.5932473%" x2="101.000572%" y2="49.5932473%" id="linearGradient-80">
            <stop stop-color="#C35C65" offset="0%"></stop>
            <stop stop-color="#CA6174" offset="100%"></stop>
        </linearGradient>
        <linearGradient x1="31.3883146%" y1="1.46943645%" x2="70.6395377%" y2="100.979884%" id="linearGradient-81">
            <stop stop-color="#C35C65" offset="0%"></stop>
            <stop stop-color="#DD6A7F" offset="100%"></stop>
        </linearGradient>
        <linearGradient x1="0.290957085%" y1="49.6259263%" x2="100.082108%" y2="49.6259263%" id="linearGradient-82">
            <stop stop-color="#D37B73" offset="0%"></stop>
            <stop stop-color="#DE7583" offset="100%"></stop>
        </linearGradient>
        <linearGradient x1="0.296440811%" y1="49.6278469%" x2="101.273085%" y2="49.6278469%" id="linearGradient-83">
            <stop stop-color="#D2726F" offset="0%"></stop>
            <stop stop-color="#DE7583" offset="100%"></stop>
        </linearGradient>
        <linearGradient x1="0.573863636%" y1="49.6271739%" x2="100.573864%" y2="49.6271739%" id="linearGradient-84">
            <stop stop-color="#E07A75" offset="0%"></stop>
            <stop stop-color="#DF7F87" offset="100%"></stop>
        </linearGradient>
        <linearGradient x1="0.503820394%" y1="49.620462%" x2="100.38554%" y2="49.620462%" id="linearGradient-85">
            <stop stop-color="#D1676A" offset="0%"></stop>
            <stop stop-color="#E37E88" offset="100%"></stop>
        </linearGradient>
        <linearGradient x1="-0.183278577%" y1="49.6088859%" x2="100.217997%" y2="49.6088859%" id="linearGradient-86">
            <stop stop-color="#EF827D" offset="0%"></stop>
            <stop stop-color="#E2878C" offset="100%"></stop>
        </linearGradient>
        <linearGradient x1="0.285030237%" y1="49.6088001%" x2="100.285348%" y2="49.6088001%" id="linearGradient-87">
            <stop stop-color="#EF827D" offset="0%"></stop>
            <stop stop-color="#E2878C" offset="100%"></stop>
        </linearGradient>
        <linearGradient x1="-0.0806595565%" y1="49.577926%" x2="99.7656944%" y2="49.577926%" id="linearGradient-88">
            <stop stop-color="#C0656B" offset="0%"></stop>
            <stop stop-color="#E37E88" offset="100%"></stop>
        </linearGradient>
        <linearGradient x1="46.5683365%" y1="-12.7951827%" x2="54.4031847%" y2="114.281229%" id="linearGradient-89">
            <stop stop-color="#B7567A" offset="0%"></stop>
            <stop stop-color="#B77F87" offset="100%"></stop>
        </linearGradient>
        <linearGradient x1="0.292999816%" y1="49.6192507%" x2="100.293362%" y2="49.6192507%" id="linearGradient-90">
            <stop stop-color="#D3817A" offset="0%"></stop>
            <stop stop-color="#DE7583" offset="100%"></stop>
        </linearGradient>
        <linearGradient x1="0.326750043%" y1="49.6034485%" x2="100.326432%" y2="49.6034485%" id="linearGradient-91">
            <stop stop-color="#F19D6F" offset="0%"></stop>
            <stop stop-color="#F9B6A8" offset="100%"></stop>
        </linearGradient>
        <linearGradient x1="-0.845644954%" y1="49.5411454%" x2="99.2993883%" y2="49.5411454%" id="linearGradient-92">
            <stop stop-color="#F19D6F" offset="0%"></stop>
            <stop stop-color="#F9B6A8" offset="100%"></stop>
        </linearGradient>
        <linearGradient x1="-0.190697674%" y1="49.4740686%" x2="100.984551%" y2="49.4740686%" id="linearGradient-93">
            <stop stop-color="#F19D6F" offset="0%"></stop>
            <stop stop-color="#F9B6A8" offset="100%"></stop>
        </linearGradient>
        <linearGradient x1="0.725826367%" y1="49.4649055%" x2="100.581181%" y2="49.4649055%" id="linearGradient-94">
            <stop stop-color="#F19D6F" offset="0%"></stop>
            <stop stop-color="#F9B6A8" offset="100%"></stop>
        </linearGradient>
        <linearGradient x1="1.03480978%" y1="49.396827%" x2="100.644976%" y2="49.396827%" id="linearGradient-95">
            <stop stop-color="#F19D6F" offset="0%"></stop>
            <stop stop-color="#F9B6A8" offset="100%"></stop>
        </linearGradient>
        <linearGradient x1="0.75250291%" y1="49.3447229%" x2="101.144811%" y2="49.3447229%" id="linearGradient-96">
            <stop stop-color="#F19D6F" offset="0%"></stop>
            <stop stop-color="#F9B6A8" offset="100%"></stop>
        </linearGradient>
        <linearGradient x1="1.43666667%" y1="49.2854167%" x2="101.436667%" y2="49.2854167%" id="linearGradient-97">
            <stop stop-color="#F19D6F" offset="0%"></stop>
            <stop stop-color="#F9B6A8" offset="100%"></stop>
        </linearGradient>
        <linearGradient x1="72.0857143%" y1="-57.7297373%" x2="43.1755102%" y2="98.0461256%" id="linearGradient-98">
            <stop stop-color="#EF827D" offset="0%"></stop>
            <stop stop-color="#F79F9C" offset="100%"></stop>
        </linearGradient>
        <linearGradient x1="0.46359584%" y1="49.2174274%" x2="100.463001%" y2="49.2174274%" id="linearGradient-99">
            <stop stop-color="#EF827D" offset="0%"></stop>
            <stop stop-color="#F79F9C" offset="100%"></stop>
        </linearGradient>
        <linearGradient x1="0.433333333%" y1="49.421097%" x2="100.433333%" y2="49.421097%" id="linearGradient-100">
            <stop stop-color="#EF827D" offset="0%"></stop>
            <stop stop-color="#F79F9C" offset="100%"></stop>
        </linearGradient>
        <linearGradient x1="0.432731123%" y1="49.462917%" x2="100.430457%" y2="49.462917%" id="linearGradient-101">
            <stop stop-color="#F19D6F" offset="0%"></stop>
            <stop stop-color="#F9B6A8" offset="100%"></stop>
        </linearGradient>
        <linearGradient x1="-0.149721046%" y1="49.4774536%" x2="99.8502018%" y2="49.4774536%" id="linearGradient-102">
            <stop stop-color="#F3AA81" offset="0%"></stop>
            <stop stop-color="#FCCCB2" offset="100%"></stop>
        </linearGradient>
        <linearGradient x1="0.891808368%" y1="49.5058029%" x2="100.527297%" y2="49.5058029%" id="linearGradient-103">
            <stop stop-color="#F3AA81" offset="0%"></stop>
            <stop stop-color="#FCCCB2" offset="100%"></stop>
        </linearGradient>
        <linearGradient x1="-0.0611940298%" y1="49.5236111%" x2="100.61194%" y2="49.5236111%" id="linearGradient-104">
            <stop stop-color="#F3AA81" offset="0%"></stop>
            <stop stop-color="#FCCCB2" offset="100%"></stop>
        </linearGradient>
        <linearGradient x1="-0.197999669%" y1="49.5067385%" x2="100.216007%" y2="49.5067385%" id="linearGradient-105">
            <stop stop-color="#F1A07D" offset="0%"></stop>
            <stop stop-color="#F7A7A1" offset="100%"></stop>
        </linearGradient>
        <linearGradient x1="2.0620768%" y1="42.1308668%" x2="99.1170517%" y2="56.9573554%" id="linearGradient-106">
            <stop stop-color="#F1A07D" offset="0%"></stop>
            <stop stop-color="#F7A7A1" offset="100%"></stop>
        </linearGradient>
        <linearGradient x1="90.4564983%" y1="88.7492084%" x2="8.84687632%" y2="9.37079724%" id="linearGradient-107">
            <stop stop-color="#F1A07D" offset="0%"></stop>
            <stop stop-color="#F7A7A1" offset="100%"></stop>
        </linearGradient>
        <linearGradient x1="97.430332%" y1="82.9503977%" x2="0.459911585%" y2="13.8396095%" id="linearGradient-108">
            <stop stop-color="#F1A07D" offset="0%"></stop>
            <stop stop-color="#F7A7A1" offset="100%"></stop>
        </linearGradient>
        <linearGradient x1="113.738313%" y1="29.9912111%" x2="-14.3653597%" y2="69.4753638%" id="linearGradient-109">
            <stop stop-color="#9A4E72" offset="0%"></stop>
            <stop stop-color="#B77F87" offset="100%"></stop>
        </linearGradient>
        <linearGradient x1="120.010846%" y1="115.419971%" x2="12.3034538%" y2="13.687041%" id="linearGradient-110">
            <stop stop-color="#9A4E72" offset="0%"></stop>
            <stop stop-color="#B77F87" offset="100%"></stop>
        </linearGradient>
        <linearGradient x1="139.209852%" y1="102.682%" x2="-5.08248702%" y2="15.4578315%" id="linearGradient-111">
            <stop stop-color="#9A4E72" offset="0%"></stop>
            <stop stop-color="#B77F87" offset="100%"></stop>
        </linearGradient>
        <linearGradient x1="120.02917%" y1="63.2271818%" x2="8.99056176%" y2="41.1658839%" id="linearGradient-112">
            <stop stop-color="#9A4E72" offset="0%"></stop>
            <stop stop-color="#B77F87" offset="100%"></stop>
        </linearGradient>
        <linearGradient x1="102.29277%" y1="69.2622968%" x2="-8.24760281%" y2="27.5870549%" id="linearGradient-113">
            <stop stop-color="#9A4E72" offset="0%"></stop>
            <stop stop-color="#B77F87" offset="100%"></stop>
        </linearGradient>
        <linearGradient x1="126.489164%" y1="94.1717415%" x2="19.1603715%" y2="29.2802126%" id="linearGradient-114">
            <stop stop-color="#9A4E72" offset="0%"></stop>
            <stop stop-color="#B77F87" offset="100%"></stop>
        </linearGradient>
        <linearGradient x1="32.6776208%" y1="0.329195732%" x2="57.7451504%" y2="70.1623329%" id="linearGradient-115">
            <stop stop-color="#D1676A" offset="0%"></stop>
            <stop stop-color="#E37E88" offset="100%"></stop>
        </linearGradient>
        <linearGradient x1="127.971429%" y1="65.3097826%" x2="13.6857143%" y2="42.2119565%" id="linearGradient-116">
            <stop stop-color="#EF827D" offset="0%"></stop>
            <stop stop-color="#E2878C" offset="100%"></stop>
        </linearGradient>
        <linearGradient x1="106.003558%" y1="68.2435839%" x2="4.05768169%" y2="34.0170126%" id="linearGradient-117">
            <stop stop-color="#EF827D" offset="0%"></stop>
            <stop stop-color="#E88B8F" offset="100%"></stop>
        </linearGradient>
        <linearGradient x1="110.634763%" y1="74.0410964%" x2="-0.974698335%" y2="28.8222178%" id="linearGradient-118">
            <stop stop-color="#BD7981" offset="0%"></stop>
            <stop stop-color="#F48992" offset="100%"></stop>
        </linearGradient>
        <linearGradient x1="106.788649%" y1="98.4699278%" x2="5.48423102%" y2="10.2572468%" id="linearGradient-119">
            <stop stop-color="#B56279" offset="0%"></stop>
            <stop stop-color="#CF8486" offset="100%"></stop>
        </linearGradient>
        <linearGradient x1="113.391157%" y1="109.724496%" x2="5.99972988%" y2="7.1990391%" id="linearGradient-120">
            <stop stop-color="#9A4E72" offset="0%"></stop>
            <stop stop-color="#B77F87" offset="100%"></stop>
        </linearGradient>
        <linearGradient x1="118.240701%" y1="97.3265585%" x2="5.79037538%" y2="18.0266645%" id="linearGradient-121">
            <stop stop-color="#9A4E72" offset="0%"></stop>
            <stop stop-color="#B77F87" offset="100%"></stop>
        </linearGradient>
        <linearGradient x1="115.642268%" y1="97.7198049%" x2="4.6903517%" y2="15.1120397%" id="linearGradient-122">
            <stop stop-color="#9A4E72" offset="0%"></stop>
            <stop stop-color="#B77F87" offset="100%"></stop>
        </linearGradient>
        <linearGradient x1="111.604566%" y1="102.105757%" x2="5.89219525%" y2="10.0493688%" id="linearGradient-123">
            <stop stop-color="#9A4E72" offset="0%"></stop>
            <stop stop-color="#B77F87" offset="100%"></stop>
        </linearGradient>
        <linearGradient x1="-1.22296014%" y1="49.5907036%" x2="99.6170395%" y2="49.5907036%" id="linearGradient-124">
            <stop stop-color="#C46669" offset="0%"></stop>
            <stop stop-color="#DD6A7F" offset="100%"></stop>
        </linearGradient>
        <linearGradient x1="0.340425532%" y1="49.5646846%" x2="100.339116%" y2="49.5646846%" id="linearGradient-125">
            <stop stop-color="#C35C65" offset="0%"></stop>
            <stop stop-color="#D36886" offset="100%"></stop>
        </linearGradient>
        <linearGradient x1="0.313253012%" y1="49.3869668%" x2="100.313253%" y2="49.3869668%" id="linearGradient-126">
            <stop stop-color="#EF827D" offset="0%"></stop>
            <stop stop-color="#F79F9C" offset="100%"></stop>
        </linearGradient>
        <linearGradient x1="0.221432877%" y1="49.509416%" x2="100.222381%" y2="49.509416%" id="linearGradient-127">
            <stop stop-color="#EF827D" offset="0%"></stop>
            <stop stop-color="#F79F9C" offset="100%"></stop>
        </linearGradient>
        <linearGradient x1="0.853939066%" y1="49.5184893%" x2="100.549778%" y2="49.5184893%" id="linearGradient-128">
            <stop stop-color="#EF827D" offset="0%"></stop>
            <stop stop-color="#F79F9C" offset="100%"></stop>
        </linearGradient>
        <linearGradient x1="0.202038815%" y1="49.3905761%" x2="100.203766%" y2="49.3905761%" id="linearGradient-129">
            <stop stop-color="#EF827D" offset="0%"></stop>
            <stop stop-color="#F79F9C" offset="100%"></stop>
        </linearGradient>
        <linearGradient x1="0.354794521%" y1="49.0472222%" x2="98.9876712%" y2="49.0472222%" id="linearGradient-130">
            <stop stop-color="#EF827D" offset="0%"></stop>
            <stop stop-color="#F79F9C" offset="100%"></stop>
        </linearGradient>
        <linearGradient x1="0.422005938%" y1="49.3431872%" x2="101.317673%" y2="49.3431872%" id="linearGradient-131">
            <stop stop-color="#9A4E72" offset="0%"></stop>
            <stop stop-color="#D7A39D" offset="100%"></stop>
        </linearGradient>
        <radialGradient cx="87.6319724%" cy="-5.72835821%" fx="87.6319724%" fy="-5.72835821%" r="176.077733%" id="radialGradient-132">
            <stop stop-color="#404067" offset="0%"></stop>
            <stop stop-color="#232547" offset="59.13%"></stop>
            <stop stop-color="#212440" offset="100%"></stop>
        </radialGradient>
        <radialGradient cx="54.9586777%" cy="-47.5676623%" fx="54.9586777%" fy="-47.5676623%" r="165.226446%" id="radialGradient-133">
            <stop stop-color="#404067" offset="0%"></stop>
            <stop stop-color="#232547" offset="59.13%"></stop>
            <stop stop-color="#212440" offset="100%"></stop>
        </radialGradient>
        <radialGradient cx="132.642373%" cy="15.2314286%" fx="132.642373%" fy="15.2314286%" r="184.797169%" id="radialGradient-134">
            <stop stop-color="#404067" offset="0%"></stop>
            <stop stop-color="#232547" offset="59.13%"></stop>
            <stop stop-color="#212440" offset="100%"></stop>
        </radialGradient>
        <radialGradient cx="50.3422315%" cy="49.5187434%" fx="50.3422315%" fy="49.5187434%" r="50.0601291%" id="radialGradient-135">
            <stop stop-color="#404067" offset="0%"></stop>
            <stop stop-color="#232547" offset="59.13%"></stop>
            <stop stop-color="#212440" offset="100%"></stop>
        </radialGradient>
        <radialGradient cx="13.3597221%" cy="-5.72835821%" fx="13.3597221%" fy="-5.72835821%" r="176.077733%" id="radialGradient-136">
            <stop stop-color="#404067" offset="0%"></stop>
            <stop stop-color="#232547" offset="59.13%"></stop>
            <stop stop-color="#212440" offset="100%"></stop>
        </radialGradient>
        <radialGradient cx="45.1454545%" cy="-47.5676623%" fx="45.1454545%" fy="-47.5676623%" r="165.226446%" id="radialGradient-137">
            <stop stop-color="#404067" offset="0%"></stop>
            <stop stop-color="#232547" offset="59.13%"></stop>
            <stop stop-color="#212440" offset="100%"></stop>
        </radialGradient>
        <radialGradient cx="-31.6015696%" cy="15.2314286%" fx="-31.6015696%" fy="15.2314286%" r="184.797169%" id="radialGradient-138">
            <stop stop-color="#404067" offset="0%"></stop>
            <stop stop-color="#232547" offset="59.13%"></stop>
            <stop stop-color="#212440" offset="100%"></stop>
        </radialGradient>
        <radialGradient cx="50.3659835%" cy="50.1959413%" fx="50.3659835%" fy="50.1959413%" r="50.1283681%" id="radialGradient-139">
            <stop stop-color="#404067" offset="0%"></stop>
            <stop stop-color="#232547" offset="59.13%"></stop>
            <stop stop-color="#212440" offset="100%"></stop>
        </radialGradient>
        <linearGradient x1="53.8121639%" y1="-0.448511905%" x2="43.4622279%" y2="137.448214%" id="linearGradient-140">
            <stop stop-color="#8C5862" offset="0%"></stop>
            <stop stop-color="#404067" offset="31.93%"></stop>
            <stop stop-color="#232547" offset="59.13%"></stop>
            <stop stop-color="#212440" offset="100%"></stop>
        </linearGradient>
        <linearGradient x1="-0.0767888307%" y1="49.8687609%" x2="99.9232112%" y2="49.8687609%" id="linearGradient-141">
            <stop stop-color="#C96B86" offset="0%"></stop>
            <stop stop-color="#943E5B" offset="61.44%"></stop>
        </linearGradient>
        <linearGradient x1="8.02102402%" y1="25.9082699%" x2="91.3897778%" y2="72.0207356%" id="linearGradient-142">
            <stop stop-color="#F1A07D" offset="0%"></stop>
            <stop stop-color="#F7A7A1" offset="100%"></stop>
        </linearGradient>
        <linearGradient x1="16.0178174%" y1="87.0900173%" x2="84.488608%" y2="12.2934779%" id="linearGradient-143">
            <stop stop-color="#F1A07D" offset="0%"></stop>
            <stop stop-color="#F7A7A1" offset="100%"></stop>
        </linearGradient>
        <linearGradient x1="20.2955785%" y1="49.4813201%" x2="122.29646%" y2="49.4813201%" id="linearGradient-144">
            <stop stop-color="#9A4E72" offset="0%"></stop>
            <stop stop-color="#D7A39D" offset="100%"></stop>
        </linearGradient>
        <linearGradient x1="25.7700504%" y1="18.9854077%" x2="86.2721266%" y2="91.9467811%" id="linearGradient-145">
            <stop stop-color="#9A4E72" offset="0%"></stop>
            <stop stop-color="#D7A39D" offset="100%"></stop>
        </linearGradient>
        <linearGradient x1="50.3865672%" y1="-37.046017%" x2="50.3865672%" y2="121.387927%" id="linearGradient-146">
            <stop stop-color="#9A4E72" offset="0%"></stop>
            <stop stop-color="#D7A39D" offset="100%"></stop>
        </linearGradient>
        <linearGradient x1="91.2451981%" y1="7.04278064%" x2="10.2221986%" y2="90.5276151%" id="linearGradient-147">
            <stop stop-color="#9A4E72" offset="0%"></stop>
            <stop stop-color="#D7A39D" offset="100%"></stop>
        </linearGradient>
        <linearGradient x1="51.992456%" y1="4.60608984%" x2="50.0379072%" y2="67.0313927%" id="linearGradient-148">
            <stop stop-color="#A14F6A" offset="0%"></stop>
            <stop stop-color="#4D3657" offset="100%"></stop>
        </linearGradient>
        <linearGradient x1="0.0266193942%" y1="49.9631974%" x2="100.026443%" y2="49.9631974%" id="linearGradient-149">
            <stop stop-color="#5E384F" offset="0%"></stop>
            <stop stop-color="#943E5B" offset="61.44%"></stop>
        </linearGradient>
        <linearGradient x1="85.7105042%" y1="70.0901345%" x2="20.760084%" y2="4.88071749%" id="linearGradient-150">
            <stop stop-color="#B05D76" offset="0%"></stop>
            <stop stop-color="#943E5B" offset="61.44%"></stop>
        </linearGradient>
        <linearGradient x1="81.8208738%" y1="6.13481837%" x2="6.27475728%" y2="84.2942751%" id="linearGradient-151">
            <stop stop-color="#773F58" offset="0%"></stop>
            <stop stop-color="#584063" offset="100%"></stop>
        </linearGradient>
    </defs>
    <g id="Page-1" stroke="none" stroke-width="1" fill="none" fill-rule="evenodd">
        <g id="Group">
            <path d="M276.9,310.1 C278.7,308.3 280.4,306.4 281.8,304.3 C286,296.3 285.2,285.6 284.5,279.3 C283.1,267.8 284.3,261.8 284.3,261.8 C278.8,268.2 285.2,287.1 270.1,300.8 C255,314.5 223.9,301.7 223.9,301.7 C223.9,301.7 217.4,293.6 209.2,283.3 C208.3,285.2 207.7,285.8 206.5,287.6 C205.9,288.4 204.5,287.5 205.1,286.7 C206.4,284.8 207.2,284.1 208.2,282 C196.3,266.8 181.6,247.3 178.9,240.7 C174.3,229.4 144.4,262.5 149.7,272.1 C156.3,284 153.2,298.4 153.2,298.4 L132.2,279.7 C129,307.4 148.3,315.8 148.3,315.8 C145.1,326.1 133.8,332.2 111,351.7 C88.2,371.2 87.5,381 90.2,402 C92.9,422.8 106.9,433.2 106.5,432.7 C106.1,432.2 95.2,405.4 97.7,388 C100.2,370.6 117.5,361.3 142.2,346.5 C166.8,331.8 166.1,318.5 166.1,318.5 C168.9,318.7 172.5,318 172.5,318 C173.7,326 171.3,339.3 171.3,339.3 C165.8,367.1 139.1,363 139.1,363 C139.1,363 134.8,371 155.9,371.5 C177,372 182.6,352.4 182.6,352.4 C190.7,351.7 201.4,351.5 204.9,347.1 C207.9,343.4 206.3,339.5 200.3,335.2 C194.3,330.9 187.2,336.4 187.2,336.4 C188.3,328.6 186.5,314.1 186.5,314.1 C192,312.5 196.8,307.9 196.8,307.9 C204.1,313 207.1,316.4 226.6,321.4 C239.3,324.6 255.7,321.6 268.4,316 C271.1,314.1 274.3,312.6 276.9,310.1 L276.9,310.1 Z" id="Shape" fill="#E8A2B0"></path>
            <path d="M276.9,310.1 C278.7,308.3 280.4,306.4 281.8,304.3 C286,296.3 285.2,285.6 284.5,279.3 C283.1,267.8 284.3,261.8 284.3,261.8 C278.8,268.2 285.2,287.1 270.1,300.8 C255,314.5 223.9,301.7 223.9,301.7 C223.9,301.7 217.4,293.6 209.2,283.3 C208.3,285.2 207.7,285.8 206.5,287.6 C205.9,288.4 204.5,287.5 205.1,286.7 C206.4,284.8 207.2,284.1 208.2,282 C196.3,266.8 181.6,247.3 178.9,240.7 C174.3,229.4 144.4,262.5 149.7,272.1 C156.3,284 153.2,298.4 153.2,298.4 L131.9,279.6 C128.7,307.3 148.3,315.8 148.3,315.8 C145.1,326.1 133.8,332.2 111,351.7 C88.2,371.2 87.5,381 90.2,402 C92.9,422.8 106.9,433.2 106.5,432.7 C106.1,432.2 95.2,405.4 97.7,388 C100.2,370.6 117.5,361.3 142.2,346.5 C166.8,331.8 166.1,318.5 166.1,318.5 C168.9,318.7 172.5,318 172.5,318 C173.7,326 171.3,339.3 171.3,339.3 C165.8,367.1 139.1,363 139.1,363 C139.1,363 134.8,371 155.9,371.5 C177,372 182.6,352.4 182.6,352.4 C190.7,351.7 201.4,351.5 204.9,347.1 C207.9,343.4 206.3,339.5 200.3,335.2 C194.3,330.9 187.2,336.4 187.2,336.4 C188.3,328.6 186.5,314.1 186.5,314.1 C192,312.5 196.8,307.9 196.8,307.9 C204.1,313 207.1,316.4 226.6,321.4 C239.3,324.6 255.7,321.6 268.4,316 C271.1,314.1 274.3,312.6 276.9,310.1 L276.9,310.1 Z" id="Shape" fill="url(#linearGradient-1)"></path>
            <path d="M152.7,280 C153.4,278.9 154.2,277.7 155.1,276.7 C156.4,275.2 157.7,273.7 159.3,272.6 C159.6,272.4 161.9,270.7 162.8,270.2 C163.7,269.8 164,269.6 164.5,269.4 C165,270.7 166.3,273.9 166.7,275.2 C169.7,271.3 175,268.4 179.8,268.1 C180.3,268.9 182.3,271.8 183.2,272.9 C187.3,277.1 187.8,277.5 191.5,279.9 C194,276.6 196.5,273.3 199.2,270.2 C189.8,257.9 180.9,245.5 178.9,240.5 C174.3,229.2 144.4,262.3 149.7,271.9 C151.1,274.6 152.1,277.3 152.7,280 L152.7,280 Z" id="Shape" fill="url(#linearGradient-2)"></path>
            <path d="M177.2,362.4 C187.2,349.1 189.1,330.3 186.3,316 C186.3,315.8 186.3,315.7 186.4,315.6 C186.4,315.3 186.3,315.1 186.3,314.9 C186.1,314.8 186,314.6 185.8,314.5 C185.7,314.4 185.7,314.5 185.7,314.4 C181.4,316.2 176.8,317.2 172.3,318 C172.3,318.1 172.2,318.1 172.2,318.2 L172.3,318.2 C173.5,326.2 171.1,339.5 171.1,339.5 C165.6,367.3 137.6,362.8 137.6,362.8 C137.6,362.8 140.1,366.8 140.8,367.4 C149.9,375.6 169.8,371.8 177.2,362.4 L177.2,362.4 Z" id="Shape" fill="url(#linearGradient-3)"></path>
            <path d="M201.7,333.7 C199.8,332.3 196.3,333.5 194.4,333.6 C188.9,336.6 182.8,346.1 185.6,352.1 C199.5,350.5 201.8,350.8 204.8,347.1 C207.9,343.3 205.6,336.3 201.7,333.7 L201.7,333.7 Z" id="Shape" fill="url(#linearGradient-4)"></path>
            <path d="M111,367.5 C123.3,359 123.5,357.3 136.1,350.8 C142.2,347.6 146.4,345.2 152.2,340.4 C156,337.2 159,333.6 162.1,329.7 C166,325 168.1,319.9 168.2,318.6 C162.3,318.8 153.4,318.6 148.2,315.8 C144.7,325.7 133.2,332.6 110.9,351.7 C88,371.2 87.4,381 90.1,402 C92.8,422.8 106.8,433.2 106.4,432.7 C106.1,432.3 101.2,418 98.4,403.7 C94.9,386.1 101.6,374 111,367.5 L111,367.5 Z" id="Shape" fill="url(#linearGradient-5)"></path>
            <path d="M223.1,318 C221.8,317.8 220.6,317.7 219.4,317.3 C219.2,317.2 219,317.1 218.9,316.9 C217.2,316.4 215.7,315.7 214.5,314.4 C213.7,313.6 213,312.7 212.3,311.9 C209.7,309.1 208.8,305 208.7,300.7 C208.6,299.3 208.6,298 208.7,296.8 C208.7,296.2 208.7,295.6 208.8,295 C207.9,291.8 209.9,289.3 212.6,287.5 C211.5,286.1 210.4,284.7 209.3,283.3 C208.9,284.1 208.5,285 208.1,285.8 L208.1,285.8 C207.8,291 207,293.7 204.5,298 C202.7,300.5 201.1,302.8 199.4,304.8 C198.5,305.7 197.3,307.2 196.7,307.9 C203.4,312.7 206.9,316.1 223.5,320.6 C223.3,319.7 223.2,318.9 223.1,318 L223.1,318 Z" id="Shape" fill="url(#linearGradient-6)"></path>
            <path d="M73.5,231.2 C64.3,209.2 67.6,199.2 72.2,191.7 L72.3,191.7 C72.8,190.9 73.3,190.1 73.8,189.4 C78.6,182.3 89.3,175.2 92,169.1 C92.3,168.4 93,167.7 93.1,167 C93.8,160.4 90.3,146.3 81,145.5 C79.9,145.2 76.9,145.1 75.7,145.3 C75.7,145.3 83.7,147.6 85.3,154 C86.3,157.8 86.2,163.4 81.9,167.8 C80.9,168.8 79.7,169.7 78.3,170.6 C75.7,172.1 70.3,174 65.6,178.5 C62.8,181.1 58,187.1 56,192.1 C53.2,198.9 52.3,205.7 53.1,214.3 C53.7,221.6 59,229.8 62.7,235 C70.8,246.5 97.5,261.9 119.5,254.1 C119.4,254 83.8,255.8 73.5,231.2 L73.5,231.2 Z" id="Shape" fill="url(#linearGradient-7)"></path>
            <path d="M313.3,265.5 C313.3,265.5 314.2,270.5 308.9,270.1 C305.7,269.7 309.4,264.8 307.7,261.4 C305.9,258 306.3,254.5 296.9,255.2 C287.5,256 313.1,245.2 313.3,265.5" id="Shape" fill="url(#linearGradient-8)"></path>
            <path d="M22.8,273.9 C22.8,273.9 31.8,273.3 44.4,280 C57.2,286.8 62.8,290.9 81,290 C99.2,289.1 100.3,279.8 99.1,279.6 C97.9,279.4 72.9,280.5 61.3,275.1 C49.7,269.7 36,267.8 22.8,273.9" id="Shape" fill="url(#linearGradient-9)"></path>
            <path d="M74.4,356.3 C72.8,349.5 67.1,347.9 64.8,348.9 C66.2,351.3 67.6,353.7 68.4,356.1 C69.4,359.3 69.8,362.7 69.2,369.7 C69,372.5 67.5,375.4 66.2,376.9 C64.4,379.1 62.1,381.2 59.2,381.7 C57.1,382.1 55,382.4 52.8,382.2 C45.7,381.8 43,374.4 42.4,372.8 C41.4,370.3 40.3,367.7 37.7,368.2 C36.6,368.4 35.9,369.2 35.6,369.9 C34.9,371.4 35,373.1 35,374.6 C35.1,375.3 35.2,375.8 35.2,375.8 C41.8,393.3 59.8,391.6 69.7,385.7 C79.6,380 76.8,366.5 74.4,356.3 L74.4,356.3 Z" id="Shape" fill="url(#linearGradient-10)"></path>
            <path d="M171.1,300.6 C171.1,300.6 172.3,289.4 171.1,284.8 C171.1,284.8 175.7,292.6 181,295.3 C181,295.3 178,299.2 171.1,300.6 L171.1,300.6 Z" id="Shape" fill="#B75978"></path>
            <path d="M197.4,348.6 C197.4,348.6 197.4,344.3 195.4,343.8 C193.9,343.4 191.4,345.2 193.4,348.4 C193.5,348.6 193.5,348.5 193.5,348.5 C193.5,348.5 195.4,349 197.4,348.6" id="Shape" fill="url(#radialGradient-11)"></path>
            <path d="M134.5,39.4 C134.5,39.4 113.2,30 104.3,45.5 C95.4,61 102.4,75.3 89.7,79 C89.7,79 109.5,88.9 129.4,77.1 C149.3,65.3 134.5,39.4 134.5,39.4 L134.5,39.4 Z" id="Shape" fill="#F0877F"></path>
            <path d="M176.4,294.2 L171.4,287 C171.6,292.2 171,300.6 171,300.6 C174.6,299.9 177.2,298.6 178.8,297.4 L176.4,294.2 L176.4,294.2 Z" id="Shape" fill="url(#linearGradient-12)"></path>
            <path d="M134.5,39.4 C134.5,39.4 131.4,38 127,37.2 C122.7,44.6 120.9,54.4 120.8,62.4 C120.8,68.2 121.5,74.6 123,80.3 C125.1,79.5 127.2,78.5 129.3,77.3 C149.1,65.4 134.5,39.4 134.5,39.4 L134.5,39.4 Z" id="Shape" fill="#CE6C6A"></path>
            <ellipse id="Oval" fill="#FECDC5" transform="translate(242.578150, 279.875530) rotate(23.634955) translate(-242.578150, -279.875530) " cx="242.57815" cy="279.87553" rx="1.19997601" ry="2.39995202"></ellipse>
            <path d="M264.3,176.2 C257,172.9 250.3,166.5 250.3,161.7 C250.3,156.9 256.3,153 256.3,153 C242.1,150.9 240,177.5 251,183.8 C262,190.2 266.4,196.6 268.7,210.4 C271,224.2 265,243 240.2,247.4 C234.5,248.4 240.9,250.4 236.4,252.1 L245,259.3 C244.8,258.9 244.7,258.7 244.7,258.7 C272.3,253.6 279.9,233.3 281.7,213 C283.5,192.7 271.6,179.6 264.3,176.2 L264.3,176.2 Z" id="Shape" fill="url(#linearGradient-13)"></path>
            <path d="M248.1,162.9 C249.2,162.7 249.5,163.8 249.8,165.4 C250.1,167 250.5,168.4 249.5,168.6 C248.5,168.8 246.1,167.9 245.8,166.3 C245.5,164.7 247,163.1 248.1,162.9 L248.1,162.9 Z" id="Shape" fill="url(#linearGradient-14)"></path>
            <path d="M252.8,253.2 C253.3,254.5 252.4,256 250.8,256.7 C249.2,257.3 247.5,256.8 247,255.5 C246.5,254.2 247.4,252.7 249,252 C250.6,251.4 252.3,252 252.8,253.2 L252.8,253.2 Z" id="Shape" fill="url(#linearGradient-15)"></path>
            <path d="M261,247.9 C261.8,249.1 261.4,250.8 260,251.8 C258.6,252.8 256.8,252.6 256,251.4 C255.2,250.2 255.6,248.5 257,247.5 C258.4,246.6 260.2,246.8 261,247.9 L261,247.9 Z" id="Shape" fill="url(#linearGradient-16)"></path>
            <path d="M267.5,241.5 C268.7,242.5 268.7,244.4 267.5,245.8 C266.3,247.1 264.5,247.4 263.3,246.4 C262.1,245.4 262.1,243.5 263.3,242.1 C264.5,240.7 266.4,240.4 267.5,241.5 L267.5,241.5 Z" id="Shape" fill="url(#linearGradient-17)"></path>
            <path d="M273.3,233.3 C274.7,234.2 275,236.1 274,237.6 C273,239.1 271.1,239.5 269.7,238.6 C268.3,237.7 268,235.8 269,234.3 C270,232.8 271.9,232.4 273.3,233.3 L273.3,233.3 Z" id="Shape" fill="url(#linearGradient-18)"></path>
            <path d="M275.2,224.2 C276.8,224.6 277.8,226.3 277.4,228 C277,229.7 275.4,230.8 273.8,230.4 C272.2,230 271.2,228.3 271.6,226.6 C271.9,224.9 273.6,223.8 275.2,224.2 L275.2,224.2 Z" id="Shape" fill="url(#linearGradient-19)"></path>
            <path d="M277,215.3 C278.6,215.5 279.8,217 279.6,218.7 C279.4,220.4 277.9,221.6 276.2,221.4 C274.6,221.2 273.4,219.7 273.6,218 C273.8,216.3 275.3,215.1 277,215.3 L277,215.3 Z" id="Shape" fill="url(#linearGradient-20)"></path>
            <path d="M277.2,205.8 C278.9,205.8 280.3,207.3 280.3,209 C280.3,210.8 278.9,212.2 277.2,212.2 C275.5,212.2 274.1,210.7 274.1,209 C274.1,207.2 275.5,205.8 277.2,205.8 L277.2,205.8 Z" id="Shape" fill="url(#linearGradient-21)"></path>
            <path d="M118.8,323.5 C120.4,301.8 126.7,291.3 131.6,286.2 C131.6,285.3 131.6,284.1 131.7,283.4 C131.8,282.6 132,279 132,279 L134.3,278.1 L137.3,281.7 C137.3,281.7 137.4,262.3 114.5,291.9 C114.5,291.9 100.8,309.1 105.1,338.9 C109.4,368.7 122.3,398.9 129,406.7 C135.6,414.5 139.2,411.4 136.1,404.3 C132.9,397.2 116.2,358.7 118.8,323.5 L118.8,323.5 Z" id="Shape" fill="url(#linearGradient-22)"></path>
            <path d="M275.5,196.9 C277.1,196.5 278.7,197.6 279.1,199.3 C279.5,201 278.5,202.6 276.9,203 C275.3,203.4 273.7,202.3 273.3,200.6 C272.9,198.9 273.9,197.3 275.5,196.9 L275.5,196.9 Z" id="Shape" fill="url(#linearGradient-23)"></path>
            <path d="M271.1,188.5 C272.6,187.7 274.4,188.3 275.3,189.9 C276.1,191.5 275.7,193.4 274.2,194.1 C272.7,194.9 270.9,194.3 270,192.7 C269.2,191.2 269.7,189.3 271.1,188.5 L271.1,188.5 Z" id="Shape" fill="url(#linearGradient-24)"></path>
            <path d="M263.9,182.1 C264.9,180.7 266.8,180.5 268.2,181.5 C269.6,182.5 270,184.4 269.1,185.8 C268.1,187.2 266.2,187.4 264.8,186.4 C263.4,185.4 263,183.5 263.9,182.1 L263.9,182.1 Z" id="Shape" fill="url(#linearGradient-25)"></path>
            <path d="M256.4,176.8 C257.3,175.5 259.2,175.2 260.7,176.3 C262.1,177.3 262.6,179.2 261.7,180.5 C260.8,181.8 258.9,182.1 257.4,181 C255.9,179.9 255.5,178.1 256.4,176.8 L256.4,176.8 Z" id="Shape" fill="url(#linearGradient-26)"></path>
            <path d="M250.8,170.1 C251.9,169.3 253.2,169.8 254.2,171.2 C255.1,172.5 255.3,174.1 254.2,174.9 C253.1,175.7 251.5,175.2 250.5,173.9 C249.6,172.6 249.7,170.9 250.8,170.1 L250.8,170.1 Z" id="Shape" fill="url(#linearGradient-27)"></path>
            <ellipse id="Oval" fill="#FFC2D6" transform="translate(239.015380, 285.708100) rotate(43.281966) translate(-239.015380, -285.708100) " cx="239.01538" cy="285.7081" rx="1.20001882" ry="2.40003763"></ellipse>
            <path d="M307.8,248.4 C307.4,248.2 306.9,248.1 306.5,247.9 C298.7,245.7 282.4,245.5 276.8,251.8 C271,258.3 270.2,268.4 272.2,278.2 C274,287.1 274.1,291.7 271.7,295.1 C270.9,296.6 269.8,298 268.4,299 C266.1,301.2 263,302.7 259.8,303.6 C258.4,304 256.8,304.3 255.3,304.4 C242,307.3 224.5,298.2 224.5,298.2 L224.4,298.3 C223.8,295.9 223.2,293.5 222.6,291.1 C220,281.6 211.9,271.9 204.7,264.7 C205.7,263.4 206.8,262.3 208,261.6 C215.8,256.4 233.5,249.1 241.3,259.2 C249.1,269.4 245.6,282.3 237,285.7 C232.5,287.8 230.6,290.4 232,291.6 C233.4,292.8 240,292.1 245.9,285.5 C251.8,278.9 255,267.4 245.2,256.2 C243.6,254.4 243.1,253.4 241,252.2 C249.3,250.4 264.9,241.7 269,225.5 C273.1,206.8 271.7,200.9 268,194.5 C266.7,191.2 264.1,189.2 263,188.7 C249.7,181.9 247.7,176.1 248.5,170.7 C248.5,169.9 248.5,169.1 248.7,168.2 C249.2,165.2 250,161.6 251.7,158.8 C253.5,154.8 257,152.8 262.5,152.5 C270.7,152 279.6,157.1 285.2,162.7 C292.3,169.8 293.7,179.3 297.7,188.1 C304.1,200.4 316.2,204.9 316.2,204.9 C311,200.2 313.1,185.8 315,179.4 C316.9,173 315.9,162.9 310.7,151.8 C305.5,140.7 302.2,136.7 278.6,135.3 C255,133.9 244.3,141.3 240,152.9 C235.2,165.9 239.4,180.2 250.8,186.6 C254.5,188.7 258.9,192.7 261.4,195.1 C266.7,202 267.8,213.5 263.6,224.6 C259.3,235.9 245.9,244.3 227.9,243.8 C210,243.3 196.3,235.9 193.7,224.6 C191.4,214.5 194.3,194.4 195,190.2 C200.8,184.6 202.3,180.9 201.2,174.2 C201.5,174.3 201.9,174.3 202.2,174.3 C205.9,174.3 207.9,171.4 207.9,167.8 C207.9,164.2 205.8,161.1 202.2,161.1 C200.1,161.1 204.6,154 203.4,155.4 C203.6,149.5 202.4,145.2 202.5,139.8 C203,139 203.5,137.3 203.5,137.3 C203.5,137.3 210.3,127.4 200.9,122.4 C200.9,122.4 203.9,103.6 188.4,85.8 C176.7,71.3 174.7,59.3 174.7,59.3 C174.7,59.3 190.3,56.2 197.8,43.7 C205.4,31.2 207.7,18.7 193.1,7.1 C178.5,-4.5 168.3,1.4 155.8,8.8 C143.3,16.1 120.4,38.6 127.5,86 C131,106.5 133.9,115.5 136.2,121 C136.2,121 124.8,127.1 131.4,138.7 C132.6,140.8 131.1,144.3 130.8,147.2 L132.2,156 C130.9,154.6 135.4,161 133.4,161 C129.6,161 127.6,164.1 127.6,167.8 C127.6,171.6 129.7,174.6 133.4,174.6 C133.8,174.6 134.1,174.5 134.5,174.5 C134.5,177 135,181.9 138,186.5 C138.3,192.3 138.3,215.1 131.3,223.8 C123.3,233.7 108.5,244.4 91.6,237.4 C76.2,231 72.2,220 71.4,206.5 C70.6,191.9 77.8,187 89.1,180.6 C100.4,174.2 103.4,161.2 98.7,148.2 C94,135.2 82.8,125.3 63.2,126.3 C43.4,127.3 34.8,133.5 29.6,144.6 C24.4,155.7 23.5,165.9 25.3,172.2 C27.1,178.5 29.3,193 24.1,197.7 C24.1,197.7 36.2,193.2 42.6,180.9 C46.5,172.1 48,162.6 55.1,155.5 C60.7,149.9 69.6,144.8 77.8,145.3 C83.3,145.6 87,148.2 89.1,151.3 C91,154 91.6,156.2 91.9,159.2 C92.5,165.6 90.6,174.7 77.3,181.5 C60.4,191.3 61,214.1 67.1,225.9 C69.8,231.1 90,269.8 127.6,250 C127.6,250 120.1,259.6 111.4,267.2 C107.2,272.2 100.4,274.6 94.1,275.4 C90.1,275.9 82.3,276.8 73.2,275.7 C64.3,274.6 57.1,270.9 49.1,267.1 C39.2,262.5 27.8,263.5 17.6,266.4 C12.9,267.7 8.5,269.3 5.2,273.3 C3.3,275.6 2.3,278.1 1.6,280.9 C1.4,282.7 1.4,284.6 1.5,286.7 C2.4,303.5 8.8,307.5 19.9,309.6 C31,311.7 35,306.3 36.9,302 C38.8,297.7 34.8,294.9 30.3,298.5 C30.3,298.5 30.2,298.5 30.2,298.6 C28,300.4 25.7,301.3 23.3,301.1 C22.6,301.2 21.9,301.2 21.2,301 C17.4,300.4 14.3,297.5 12.6,294.2 C8.4,286.1 11.3,277.7 20,275.3 C20.4,275.1 20.8,275 21.3,274.8 C34.1,270.8 41.4,270.3 61,277.4 C74,282.6 94.3,280.9 94.3,280.9 L94.4,280.9 C94.1,281.1 93.7,281.2 93.4,281.4 C93.4,281.4 74.5,287 61.2,294.8 C61.1,294.9 55.7,299.1 53.9,302.2 C52.5,304.7 51.8,308.1 51.4,310.9 C50.3,318.6 52.6,326.9 56,333.9 C59.1,340.5 64,346.9 67.5,353.3 C70.7,359.3 73.3,364.2 73.3,369.7 C73.3,377.7 68.6,385.9 60.7,387.7 C52.2,389.6 39.5,388.9 35.1,373.6 C35,375 35.1,376.4 35.3,377.8 C36.1,381.7 38.4,387.6 44.9,390.3 C51.8,393.1 64,394.9 72.2,387.6 C78.3,382.4 80.6,376 81,372.8 C81.6,368.7 82.3,364.9 81.8,361.5 C80.7,354.7 79,350.3 74,341.8 C71.6,337.9 68.4,334.2 66.3,330.2 C64.6,327.1 63.1,324.3 63.7,320.1 C65.1,308.8 77.4,309 86.1,305.7 C94.8,302.4 123.7,291.6 132,279.6 C132,279.6 132.9,294.6 149.6,302.2 C166.4,309.8 182,303.9 188.8,294.6 C191.7,290.7 194.3,285 196.8,279.4 C200,282.1 203.1,284.9 205.8,288.2 C216.9,301.7 217.4,319.8 215.2,328.8 C213.3,336.8 208.8,341.4 207.8,342.2 C207.3,342.7 206.9,343.2 206.6,343.7 C204.6,345.7 200,349.6 195.1,349 L194.8,349 C191.6,348.9 187.9,346.9 187.6,343.3 C187.5,341 188.3,337.9 190.6,336.9 C191.1,335.9 192,335 193.4,334.3 C196.3,332.8 200.2,331 202.6,334.4 C202.8,334.7 205.7,337.5 206,337 C204,326.9 191.8,330.1 188.4,333 C185,335.8 172.1,350 189.8,359.5 C191.1,360.2 192.4,360.8 193.6,361.2 C192.3,362.7 188.2,367.2 185.3,367.8 C181.8,368.5 186,372.3 190,370.9 C193.3,369.7 198.8,364.6 202.1,361 C211.5,359.6 217.1,350.9 222.8,340.9 C228.5,330.9 228.3,318.4 225.9,305.5 C232.5,308.7 246,313.3 261,307.6 C282.3,299.6 283.2,281.4 283.2,276.7 C283.2,272 278.2,257.6 296,255 C311.7,252.7 313.1,264.6 313.2,267.2 C313.2,267.3 313.3,267.4 313.3,267.5 C315.5,262.9 315.6,253.9 307.8,248.4 L307.8,248.4 Z M169.8,300.1 C151.9,302.9 146.6,290.4 147.8,278 C149,265.6 169.1,250.5 175.6,243.5 C175.6,243.5 173.7,264.6 191.9,275.7 C192,275.6 187.7,297.2 169.8,300.1 L169.8,300.1 Z M200.8,261.1 C196.5,257.1 193.1,254.2 192.4,253.7 C194.5,254.9 196.7,256.1 199,256.5 C200.7,256.8 202.8,256.7 206.2,256.4 C205.5,256.8 203.9,257.7 203.5,258.2 C202.5,259 201.6,260 200.8,261.1 L200.8,261.1 Z" id="Shape" fill="url(#linearGradient-28)"></path>
            <path d="M203,278.7 C202.4,280.4 201.9,282.1 201.3,283.8 C202.8,285.2 204.2,286.7 205.6,288.4 C208.8,292.3 210.8,294.4 212.4,298.7 C213.7,294.8 214.3,292.7 215.1,288.5 C215.6,285.7 216.8,283.3 217.9,280.8 C215,276.2 211.4,271.8 207.7,267.9 C205.5,271.1 204.3,274.9 203,278.7 L203,278.7 Z" id="Shape" fill="url(#linearGradient-29)"></path>
            <path d="M92.2,408.3 C87.8,390.8 90.4,372 105.3,359.4 C106,358.7 106.7,358 107.4,357.3 C106.7,355.3 106.2,353.4 105.9,351.3 C96,360.2 87.6,373.3 86.1,387.5 C84,407.1 88.9,422.5 97,430.5 C105,438.5 107.6,435.9 106.4,432.6 C106.4,432.6 96.7,426.3 92.2,408.3 L92.2,408.3 Z" id="Shape" fill="url(#linearGradient-30)"></path>
            <path d="M119.4,345.6 C123.3,342 127.6,338.5 131.3,334.8 C130.2,335.4 128.8,336.6 127.7,337.1 C124.9,339 121.8,340.7 119.1,342.1 C119.1,343.3 119.1,344.1 119.4,345.6 L119.4,345.6 Z" id="Shape" fill="#B75978"></path>
            <path d="M187.2,334.2 C188.4,333.1 190.5,331.8 192.2,331.1 C192.2,320.1 189.6,312.9 189.6,312.9 L185.5,314.5 C185.9,316.3 186.3,317.9 186.5,320.2 C187.2,324.9 187.5,329.5 187.2,334.2 L187.2,334.2 Z" id="Shape" fill="#B75978"></path>
            <path d="M182.9,353.2 C182.7,353.1 182.4,353 182.1,352.9 C180.8,357 178.3,360.5 175.1,363.4 C172.1,366.8 168.2,369.2 163.1,370.1 C150.3,372.5 141.6,370.6 137.1,361.6 C132.6,352.6 139.9,349.8 142.3,349.1 C144.7,348.4 146.1,339.4 134.5,345.8 C122.9,352.2 131,369.7 140.9,375.1 C150.8,380.5 176.6,379.4 186.4,357.4 C186.4,357.3 185.8,355.2 185.9,355.1 C184.7,354.5 183.7,353.9 182.9,353.2 L182.9,353.2 Z" id="Shape" fill="url(#linearGradient-31)"></path>
            <path d="M176,232 C174.7,234.6 172.6,237 170.9,239.4 C167,244.6 162.4,249.3 158.2,254.3 C152.3,261.3 143.7,270 143.5,279.6 C143.4,282.1 144.2,284.7 145.1,287.2 C149.5,299.2 159.1,300.5 162.8,300.5 C162.8,300.5 145.8,299.4 148.1,278.4 C149.5,266.7 168.7,250.3 175.6,243.9 C175.6,243.8 175.2,241.2 176,232 L176,232 Z" id="Shape" fill="url(#linearGradient-32)"></path>
            <path d="M97.1,274.9 C92.3,277.7 87.9,279.5 82.5,280.7 C82,280.9 81.1,280.8 80.6,281 C88.3,281.2 94.2,281 94.2,281 C94.2,281 103.2,277 108.2,270.2 C104.7,272.6 101,274.1 97.1,274.9 L97.1,274.9 Z" id="Shape" fill="url(#linearGradient-33)"></path>
            <path d="M35.6,297.2 L35.6,297.2 C36.5,298.1 36.8,299.3 35.4,300.9 C34.6,301.9 33.6,302.7 32.6,303.4 C32.1,303.9 31.4,304.3 30.8,304.7 C24.9,309.1 16.2,308.3 10.6,304.3 C3,298.9 0.3,288.7 1.7,279.7 C1.5,280.3 1.4,280.9 1.2,281.5 C-1.8,300.8 5.7,306.2 14.5,309.3 C24.1,312.7 30.7,310.6 35.5,305.3 C40.6,299.1 35.6,297.2 35.6,297.2 L35.6,297.2 Z" id="Shape" fill="url(#linearGradient-34)"></path>
            <path d="M198.7,275.6 C198,277.1 197.3,278.6 196.4,280 C219.7,298.1 215.8,324.9 215.8,324.9 C221.2,302.9 211.3,283.8 198.7,275.6 L198.7,275.6 Z" id="Shape" fill="url(#linearGradient-35)"></path>
            <path d="M257.5,242.4 C254.1,245.1 249.8,247.4 245.6,248.8 C243.6,249.5 240.5,250.8 239.6,250.3 C236.5,248.7 233,248.5 229.5,248.3 C228.7,248.3 227.9,248.4 227.1,248.4 C223.8,248.8 220.5,249.4 217.1,250.3 C213.3,251.4 209.3,251.6 205.5,250.3 C201.9,249.1 198.1,247.3 195.3,244.7 C192.7,242.3 191.3,239.4 189.5,236.4 C189.3,240.6 189.3,250.5 191.9,253.2 C194,255.5 197.7,257.7 205.6,256.7 C205.6,256.7 225.6,243.2 241.4,252.3 C241.4,252.3 261.2,248.3 268.6,227.3 C265.8,232.9 262.5,238.5 257.5,242.4 L257.5,242.4 Z" id="Shape" fill="url(#linearGradient-36)"></path>
            <path d="M203,331.9 C197.1,327.6 188.7,334.7 185.9,340 C183.8,343.9 186.3,347.3 190.5,349.3 C194,350.5 197.7,349.6 201,347.8 C198,348.7 195.7,349 193.5,348.4 C191,348.1 189.2,346.1 189.1,343.9 C189.2,341.2 192.1,338.4 195.2,338.2 C198.1,338 199.7,342 198.7,348.9 C198.7,348.9 201.9,347.8 204.5,345.8 C206.3,344.4 206.7,343.6 206.7,343.6 C206.7,343.6 206.8,334.7 203,331.9 L203,331.9 Z" id="Shape" fill="url(#linearGradient-37)"></path>
            <path d="M155.8,183.2 C155.8,183.2 167.7,188.7 181.5,183.7 C181.5,183.7 173,196.8 155.8,183.2 L155.8,183.2 Z" id="Shape" fill="#B75978"></path>
            <path d="M149.5,115.8 C144.8,115 139.3,115.3 134.6,117.3 L136.1,121.2 C136.1,121.2 146.2,116.6 158.8,122.1 C158.9,122 156.6,117.8 149.5,115.8 L149.5,115.8 Z" id="Shape" fill="url(#linearGradient-38)"></path>
            <path d="M178.6,118.7 C176.9,119.9 175.5,122.7 175.5,122.7 C189.8,117.1 200.8,122.5 200.8,122.5 C201.2,121.7 201,118 201,116.7 C193.6,113.6 183.5,115.1 178.6,118.7 L178.6,118.7 Z" id="Shape" fill="url(#linearGradient-39)"></path>
            <path d="M291.4,251.5 C278.5,254.2 277.9,263.9 278.5,275.2 C279,286.5 273.4,303.1 255.3,304.4 L254.8,304.4 C252.2,304.7 249.5,304.6 246.8,304.3 C231.4,303.2 224.1,296.6 224.1,296.6 L225.9,305.6 C225.9,305.6 232.5,309.4 241.6,310.5 C244.8,310.8 247.4,311 250.6,310.9 C256.9,310.8 264.8,309.8 270.3,306.2 C278.1,301.1 281.8,291.4 283.1,283.2 C283.1,283.1 283.2,283 283.2,282.8 C286,270 278.8,259.5 293.9,256.1 C308.3,252.9 312.2,260.7 313,266.4 C313.1,266.6 313.1,266.7 313.2,266.9 C313.7,264.4 316.5,246.1 291.4,251.5 L291.4,251.5 Z" id="Shape" fill="#B75978"></path>
            <path d="M202.9,356.5 C198.7,357.5 194.5,357 190.9,356.1 C186.8,354.9 181.9,352.5 180.6,347.8 C180.6,347.8 180.6,358.7 192.6,361.2 C193.1,361.3 190.7,360.7 190.7,360.7 C189.2,362.6 187.1,365.5 184.9,365.8 C182.7,366.2 181.3,370.6 187,371.6 C192.8,372.6 201.4,361.9 201.4,361.9 C211.4,362.1 221.8,342.7 221.8,342.7 C221.8,342.7 213.5,354 202.9,356.5 L202.9,356.5 Z" id="Shape" fill="url(#linearGradient-40)"></path>
            <path d="M47.5,152.4 C37.9,166.2 41.1,188.6 24.5,197.2 C24.3,197.4 24.2,197.6 24,197.8 C24,197.8 36.1,193.3 42.5,181 C46.4,172.2 47.9,162.7 55,155.6 C60.6,150 69.5,144.9 77.7,145.4 C79.6,145.5 82.8,146 85.4,147.8 C84.1,146.7 80.6,143.3 76.2,141.8 C67,138.6 54.8,141.8 47.5,152.4 L47.5,152.4 Z" id="Shape" fill="url(#linearGradient-41)"></path>
            <path d="M292.5,161.2 C286.2,154.3 274.3,151.1 263.7,152.6 C271.6,152.7 279.9,157.5 285.2,162.9 C292.3,170 293.7,179.5 297.7,188.3 C301.1,194.8 306,199.1 310,201.7 C306.1,197.6 303.7,192.3 301.9,186.8 C300.4,182.2 299.3,177.5 297.9,172.9 C296.7,168.8 295.4,164.3 292.5,161.2 L292.5,161.2 Z" id="Shape" fill="url(#linearGradient-42)"></path>
            <path d="M198.9,256.4 C196.7,256 194.5,255.2 192.4,253.9 C193.1,254.4 196.5,257.1 200.7,261 C201.5,259.9 202.4,258.9 203.3,258 C203.8,257.6 205.6,256.8 206,256.4 C202.8,256.8 200.7,256.7 198.9,256.4 L198.9,256.4 Z" id="Shape"></path>
            <path d="M175.7,243.4 C169.1,250.5 149.1,265.5 147.9,277.9 C146.7,290.3 152,302.9 169.9,300 C187.8,297.1 192,275.6 192,275.6 C173.7,264.5 175.7,243.4 175.7,243.4 L175.7,243.4 Z" id="Shape"></path>
            <path d="M178.6,98.9 C178.6,98.9 168,88.7 151.6,93.5 C136.9,97.8 138,110 138,110 C138,110 145.8,95.6 178.6,98.9 L178.6,98.9 Z" id="Shape" fill="url(#linearGradient-43)"></path>
            <path d="M163.6,74.8 C163.6,74.8 153.8,65.7 140.6,70.9 C129.4,75.3 132.8,86.7 132.8,86.7 C132.8,86.7 139.5,70.7 163.6,74.8 L163.6,74.8 Z" id="Shape" fill="url(#linearGradient-44)"></path>
            <path d="M156.4,56.3 C156.4,56.3 148.4,47.3 135.1,51.5 C126.1,54.3 128.2,64.4 128.2,64.4 C128.7,64.7 134.4,53.3 156.4,56.3 L156.4,56.3 Z" id="Shape" fill="url(#linearGradient-45)"></path>
            <path d="M153.1,39.1 C153.1,39.1 146.5,31.8 132.9,35.1 C132,37 131.2,38.9 130.5,41 C139.5,37.2 153.1,39.1 153.1,39.1 L153.1,39.1 Z" id="Shape" fill="url(#linearGradient-46)"></path>
            <path d="M152.3,23.1 C152.3,23.1 150.9,17.2 145.4,17.1 C144.2,18.3 143,19.6 141.8,21 C148.4,20.9 152.3,23.1 152.3,23.1 L152.3,23.1 Z" id="Shape" fill="url(#linearGradient-47)"></path>
            <path d="M192.6,34.4 C192.6,34.4 198,35.2 202.2,34.6 C203.4,31.1 203.9,27.6 203.6,24.1 C202.7,26.8 199.7,33.9 192.6,34.4 L192.6,34.4 Z" id="Shape" fill="url(#linearGradient-48)"></path>
            <path d="M181.9,43.9 C181.9,43.9 185,49.5 190.4,52 C192.6,50.3 194.8,48.1 196.6,45.6 C195,46 188.3,47.6 181.9,43.9 L181.9,43.9 Z" id="Shape" fill="url(#linearGradient-49)"></path>
            <path d="M174.6,59.6 C174.6,59.6 169.9,42.9 179,26.3 C179,26.3 173.3,40.8 183.3,56.4 C183.2,56.4 179.6,58.2 174.6,59.6 L174.6,59.6 Z" id="Shape" fill="#D87575"></path>
            <path d="M198.9,256.4 C196.7,256 194.5,255.2 192.4,253.9 C193.1,254.4 196.5,257.1 200.7,261 C201.5,259.9 202.4,258.9 203.3,258 C203.8,257.6 205.6,256.8 206,256.4 C202.8,256.8 200.7,256.7 198.9,256.4 L198.9,256.4 Z" id="Shape"></path>
            <path d="M175.7,243.4 C169.1,250.5 149.1,265.5 147.9,277.9 C146.7,290.3 152,302.9 169.9,300 C187.8,297.1 192,275.6 192,275.6 C173.7,264.5 175.7,243.4 175.7,243.4 L175.7,243.4 Z" id="Shape"></path>
            <path d="M45.7,141.2 C39.9,137.1 35.7,137.3 33.7,137.8 C32.7,139.2 31.4,140.8 30.5,142.6 C36.7,140.8 45.7,141.2 45.7,141.2 L45.7,141.2 Z" id="Shape" fill="url(#linearGradient-50)"></path>
            <path d="M28.6,146.7 C28,148 27.4,149.5 27,150.8 C31.8,149.1 37.3,148.4 37.3,148.4 C33.5,146.5 30.6,146.4 28.6,146.7 L28.6,146.7 Z" id="Shape" fill="url(#linearGradient-51)"></path>
            <path d="M25.5,155.7 C25.2,156.9 25,158.1 24.8,159.2 C28.6,157.2 33.2,156 33.2,156 C29.7,154.9 27.2,155.2 25.5,155.7 L25.5,155.7 Z" id="Shape" fill="url(#linearGradient-52)"></path>
            <path d="M294.5,148.3 C300.3,144.2 305,144.5 307,145 C308,146.4 308.8,147.9 309.7,149.7 C303.5,147.9 294.5,148.3 294.5,148.3 L294.5,148.3 Z" id="Shape" fill="url(#linearGradient-53)"></path>
            <path d="M311.7,153.9 C312.3,155.2 312.8,156.6 313.2,157.9 C308.4,156.2 302.9,155.5 302.9,155.5 C306.7,153.7 309.7,153.5 311.7,153.9 L311.7,153.9 Z" id="Shape" fill="url(#linearGradient-54)"></path>
            <path d="M314.7,162.9 C315,164.1 315.2,165.3 315.4,166.4 C311.6,164.4 307,163.2 307,163.2 C310.5,162.1 313,162.4 314.7,162.9 L314.7,162.9 Z" id="Shape" fill="url(#linearGradient-55)"></path>
            <path d="M177.5,168.6 C177.5,168.6 178.8,168.9 180.2,169.7 L180.3,170 C180.3,171 179.7,171.4 179.3,171.6 C178.1,172.1 173.1,173.3 166.1,172 C166.1,172 170.7,175.1 178.3,173.6 C178.3,173.6 178.9,173.5 179.6,173.2 C179.9,173.1 180.3,172.9 180.6,172.7 C180.8,172.6 180.9,172.5 181.1,172.3 L181.2,172.2 L181.2,172.2 C181.5,171.8 181.8,171.3 181.9,170.4 C182.7,171 183.5,171.6 184.1,172.7 C184,172.7 183.6,166.9 177.5,168.6 L177.5,168.6 Z" id="Shape" fill="url(#linearGradient-56)"></path>
            <path d="M178.6,310.2 C179,312.4 177.4,314.6 174.9,315.1 C172.4,315.6 170,314.2 169.6,311.9 C169.2,309.7 170.8,307.5 173.3,307 C175.8,306.5 178.2,307.9 178.6,310.2 L178.6,310.2 Z" id="Shape" fill="url(#linearGradient-57)"></path>
            <path d="M179.4,319 C181.7,318.8 183.7,320.7 183.9,323.2 C184.1,325.7 182.5,328 180.2,328.2 C177.9,328.4 175.9,326.5 175.7,324 C175.5,321.5 177.1,319.2 179.4,319 L179.4,319 Z" id="Shape" fill="url(#linearGradient-58)"></path>
            <path d="M204,303.7 C205.4,301.4 208.5,300.8 211.1,302.3 C213.7,303.8 214.6,306.9 213.3,309.2 C211.9,311.5 208.8,312.1 206.2,310.6 C203.6,309.1 202.7,306 204,303.7 L204,303.7 Z" id="Shape" fill="url(#linearGradient-59)"></path>
            <path d="M180,331.6 C182.3,331.8 184,334.2 183.7,336.8 C183.4,339.4 181.3,341.4 179,341.2 C176.7,341 175,338.6 175.3,336 C175.7,333.3 177.7,331.3 180,331.6 L180,331.6 Z" id="Shape" fill="url(#linearGradient-60)"></path>
            <path d="M177.8,344.3 C180,345.1 181,347.7 180.1,350.2 C179.2,352.7 176.7,354.1 174.5,353.3 C172.3,352.5 171.3,349.9 172.2,347.4 C173.1,344.9 175.6,343.5 177.8,344.3 L177.8,344.3 Z" id="Shape" fill="url(#linearGradient-61)"></path>
            <path d="M172.2,355.5 C173.8,357.1 173.6,360 171.8,361.9 C169.9,363.8 167.1,363.9 165.4,362.3 C163.7,360.7 164,357.8 165.8,355.9 C167.7,354 170.6,353.8 172.2,355.5 L172.2,355.5 Z" id="Shape" fill="url(#linearGradient-62)"></path>
            <path d="M162.4,363.5 C163,365.5 161.7,367.6 159.6,368.2 C157.4,368.9 155.2,367.8 154.6,365.9 C154,363.9 155.3,361.8 157.4,361.2 C159.6,360.5 161.8,361.5 162.4,363.5 L162.4,363.5 Z" id="Shape" fill="url(#linearGradient-63)"></path>
            <path d="M153.3,366.6 C153.2,368.3 151.5,369.6 149.5,369.6 C147.5,369.5 145.9,368.1 145.9,366.4 C146,364.7 147.7,363.4 149.7,363.4 C151.8,363.4 153.4,364.9 153.3,366.6 L153.3,366.6 Z" id="Shape" fill="url(#linearGradient-64)"></path>
            <path d="M165.8,312.8 C165.6,315.1 163.4,316.7 160.9,316.6 C158.4,316.4 156.4,314.4 156.6,312.2 C156.8,309.9 159,308.3 161.5,308.4 C164.1,308.6 166,310.5 165.8,312.8 L165.8,312.8 Z" id="Shape" fill="url(#linearGradient-65)"></path>
            <path d="M152.8,311.2 C151.9,313.2 149.4,313.9 147.1,312.9 C144.8,311.9 143.7,309.5 144.6,307.5 C145.5,305.5 148,304.8 150.3,305.8 C152.6,306.8 153.7,309.2 152.8,311.2 L152.8,311.2 Z" id="Shape" fill="url(#linearGradient-66)"></path>
            <path d="M142.3,304.6 C141,305.9 138.8,305.7 137.3,304.2 C135.8,302.7 135.7,300.5 136.9,299.2 C138.2,297.9 140.4,298.1 141.9,299.6 C143.5,301.1 143.6,303.4 142.3,304.6 L142.3,304.6 Z" id="Shape" fill="url(#linearGradient-67)"></path>
            <path d="M135.1,297.1 C136.3,296.2 136.2,294.3 135.2,292.6 C134.4,291.2 133.2,290.4 132,290.5 C132,290.5 132.3,294.1 133.4,297.4 C133.9,297.5 134.4,297.4 135.1,297.1 L135.1,297.1 Z" id="Shape" fill="url(#linearGradient-68)"></path>
            <path d="M229.9,253.8 C217.4,252.8 210.2,259.5 207,262.3 C201.7,266.9 195.1,283.4 195.1,283.4 C195.1,283.4 185.6,314.5 191.6,311.7 C197.5,308.9 205.2,302 207,292 C207.9,287.1 209.4,281.7 210.7,277.6 C212.4,273.9 215.7,267.9 222.1,265.3 C225.9,263.7 230.3,263.9 234,264.6 C237.5,266 240.9,268.7 241.2,274.3 C241.6,281.1 235.9,286.5 235.9,286.5 C235.9,286.5 242.9,284.8 245.1,276.7 C247.6,268.4 245.6,255 229.9,253.8 L229.9,253.8 Z" id="Shape" fill="url(#linearGradient-69)"></path>
            <path d="M191.2,303.1 C192.6,305 191.9,307.9 189.8,309.4 C187.6,310.9 184.8,310.6 183.4,308.7 C182,306.8 182.7,303.9 184.8,302.4 C187,300.8 189.8,301.2 191.2,303.1 L191.2,303.1 Z" id="Shape" fill="url(#linearGradient-70)"></path>
            <path d="M199.8,291.6 C201.9,292.9 202.4,295.9 200.9,298.3 C199.4,300.7 196.5,301.6 194.4,300.3 C192.3,299 191.8,296 193.3,293.6 C194.8,291.1 197.7,290.3 199.8,291.6 L199.8,291.6 Z" id="Shape" fill="url(#linearGradient-71)"></path>
            <path d="M238.4,316.6 C237.9,318.8 235.6,320.2 233.1,319.7 C230.6,319.2 229,317 229.4,314.8 C229.8,312.6 232.2,311.2 234.7,311.7 C237.2,312.2 238.8,314.4 238.4,316.6 L238.4,316.6 Z" id="Shape" fill="url(#linearGradient-72)"></path>
            <path d="M251.2,316.8 C251.3,318.8 249.6,320.5 247.4,320.7 C245.1,320.9 243.2,319.4 243,317.4 C242.9,315.4 244.6,313.7 246.8,313.5 C249,313.3 251.1,314.8 251.2,316.8 L251.2,316.8 Z" id="Shape" fill="url(#linearGradient-73)"></path>
            <path d="M262.7,318.1 C263.1,317.4 263.3,316.5 263.2,315.7 C262.8,313.7 260.7,312.5 258.5,312.9 C256.3,313.3 254.8,315.2 255.1,317.2 C255.3,318.3 256.2,319.3 257.2,319.8 C259.4,319.2 260.4,318.9 262.7,318.1 L262.7,318.1 Z" id="Shape" fill="url(#linearGradient-74)"></path>
            <path d="M267.4,316.3 C269.7,315.4 272.1,313.9 274.1,312.4 C274.1,312.2 274,311.9 273.9,311.7 C273.1,309.9 270.7,309.1 268.7,310.1 C266.6,311 265.6,313.3 266.4,315.1 C266.6,315.5 267,315.9 267.4,316.3 L267.4,316.3 Z" id="Shape" fill="url(#linearGradient-75)"></path>
            <path d="M281.9,304.1 C281.7,303.8 281.5,303.6 281.3,303.4 C279.7,302.1 277.3,302.5 275.9,304.3 C274.5,306.1 274.6,308.5 276.1,309.8 C276.3,310 276.6,310.1 276.8,310.2 C278.8,308.2 280.4,307 281.9,304.1 L281.9,304.1 Z" id="Shape" fill="url(#linearGradient-76)"></path>
            <path d="M284.4,297.1 C284.6,295.8 284.8,294.4 284.9,293.1 C283.4,293.2 282,294.3 281.4,296 C280.7,298 281.6,300.1 283.3,300.9 C283.7,299.6 284.2,298.3 284.4,297.1 L284.4,297.1 Z" id="Shape" fill="url(#linearGradient-77)"></path>
            <path d="M284.9,284.4 C284.4,285 284,285.8 283.9,286.8 C283.8,288.1 284.2,289.4 285,290.2 C285.2,288 285.3,286.4 284.9,284.4 L284.9,284.4 Z" id="Shape" fill="url(#linearGradient-78)"></path>
            <path d="M170.7,248.5 C169.4,249.7 168,251 166.7,252.2 C165.8,253 164.9,254 163.9,254.9 C165,255.9 166.7,256.6 168.3,256.3 C170.8,255.8 172.4,253.3 171.8,250.7 C171.6,250 171.1,249.1 170.7,248.5 L170.7,248.5 Z" id="Shape" fill="url(#linearGradient-79)"></path>
            <path d="M157.2,262.1 C156.1,263.5 154.9,265 153.8,266.4 C153.1,267.3 152.3,268.6 151.6,269.6 C152.8,270.5 154.6,270.8 156.1,270.3 C158.5,269.4 159.6,266.7 158.7,264.2 C158.5,263.5 157.8,262.6 157.2,262.1 L157.2,262.1 Z" id="Shape" fill="url(#linearGradient-80)"></path>
            <path d="M168,260.2 C170.2,259.2 172.9,260.2 173.9,262.6 C175,264.9 174,267.6 171.8,268.6 C169.6,269.6 166.9,268.6 165.9,266.2 C164.8,263.9 165.7,261.2 168,260.2 L168,260.2 Z" id="Shape" fill="url(#linearGradient-81)"></path>
            <path d="M173.8,272.5 C175.9,271.3 178.6,272.2 179.9,274.4 C181.2,276.6 180.4,279.4 178.3,280.6 C176.2,281.8 173.5,280.9 172.2,278.7 C171,276.4 171.7,273.7 173.8,272.5 L173.8,272.5 Z" id="Shape" fill="url(#linearGradient-82)"></path>
            <path d="M160,275.3 C162.4,274.9 164.7,276.6 165.1,279.1 C165.5,281.6 164,284 161.6,284.4 C159.2,284.8 156.9,283.1 156.5,280.6 C156.1,278.1 157.6,275.8 160,275.3 L160,275.3 Z" id="Shape" fill="url(#linearGradient-83)"></path>
            <path d="M162.5,287.8 C164.9,287.8 166.9,289.8 167,292.3 C167,294.8 165.1,296.9 162.7,297 C160.3,297 158.3,295 158.2,292.5 C158.2,290 160.1,287.9 162.5,287.8 L162.5,287.8 Z" id="Shape" fill="url(#linearGradient-84)"></path>
            <path d="M156,321.3 C158.1,322.6 158.6,325.4 157.3,327.5 C156,329.6 153.2,330.3 151.1,329 C149,327.7 148.5,324.9 149.8,322.8 C151.2,320.6 154,320 156,321.3 L156,321.3 Z" id="Shape" fill="url(#linearGradient-85)"></path>
            <path d="M147.6,331.1 C149.1,332.9 148.7,335.7 146.8,337.3 C144.8,338.9 142,338.7 140.5,336.9 C139,335.1 139.4,332.3 141.3,330.7 C143.3,329.1 146.1,329.3 147.6,331.1 L147.6,331.1 Z" id="Shape" fill="url(#linearGradient-86)"></path>
            <path d="M136.6,344.6 C137.4,344.2 138.1,343.9 138.9,343.7 C139.6,342.3 139.6,340.6 138.6,339.3 C137.2,337.3 134.4,336.8 132.3,338.3 C130.2,339.7 129.6,342.5 131,344.5 C131.6,345.4 132.5,345.9 133.5,346.2 C134.5,345.5 135.6,345.1 136.6,344.6 L136.6,344.6 Z" id="Shape" fill="url(#linearGradient-87)"></path>
            <path d="M128.7,347.6 C130,349.4 129.4,352 127.5,353.3 C125.6,354.6 123,354.2 121.8,352.4 C120.5,350.6 121.1,348 123,346.7 C124.9,345.4 127.4,345.8 128.7,347.6 L128.7,347.6 Z" id="Shape" fill="url(#linearGradient-88)"></path>
            <path d="M105.1,365.5 C106.4,366.4 106.5,368.5 105.3,370.1 C104.1,371.7 102.1,372.2 100.8,371.3 C99.5,370.4 99.4,368.3 100.6,366.7 C101.8,365.1 103.8,364.6 105.1,365.5 L105.1,365.5 Z" id="Shape" fill="url(#linearGradient-89)"></path>
            <path d="M185.6,289.9 C186.9,288.2 187.8,286.9 188.8,284.7 L188.9,284.4 C188.7,283.6 188.3,283 187.7,282.4 C185.9,280.6 183,280.6 181.3,282.3 C179.6,284 179.6,286.9 181.4,288.7 C182.6,289.9 184.1,290.3 185.6,289.9 L185.6,289.9 Z" id="Shape" fill="url(#linearGradient-90)"></path>
            <path d="M204.2,279.1 C206.2,280 207,282.5 206,284.7 C205,286.9 202.7,288.1 200.7,287.2 C198.7,286.3 197.9,283.8 198.9,281.6 C199.8,279.4 202.2,278.3 204.2,279.1 L204.2,279.1 Z" id="Shape" fill="url(#linearGradient-91)"></path>
            <path d="M209.7,268.1 C211.4,269 211.9,271.2 210.9,273.1 C209.9,275 207.7,275.8 206.1,274.9 C204.4,274 203.9,271.8 204.9,269.9 C205.8,268.1 208,267.3 209.7,268.1 L209.7,268.1 Z" id="Shape" fill="url(#linearGradient-92)"></path>
            <path d="M218.8,261.5 C219.7,262.9 219.2,265 217.6,266 C216,267.1 213.9,266.8 213,265.3 C212.1,263.9 212.6,261.8 214.2,260.8 C215.8,259.7 217.9,260 218.8,261.5 L218.8,261.5 Z" id="Shape" fill="url(#linearGradient-93)"></path>
            <path d="M229.1,259.4 C229.2,261.2 227.7,262.6 225.8,262.7 C223.9,262.8 222.4,261.4 222.3,259.6 C222.2,257.8 223.7,256.4 225.6,256.3 C227.5,256.2 229.1,257.6 229.1,259.4 L229.1,259.4 Z" id="Shape" fill="url(#linearGradient-94)"></path>
            <path d="M238.1,261.7 C237.5,263.1 235.7,263.7 234.1,263 C232.5,262.3 231.8,260.6 232.4,259.2 C233,257.8 234.8,257.2 236.4,257.9 C238,258.6 238.7,260.3 238.1,261.7 L238.1,261.7 Z" id="Shape" fill="url(#linearGradient-95)"></path>
            <path d="M242.8,268.6 C241.8,269.2 240.4,268.5 239.7,267.2 C238.9,265.9 239.1,264.3 240,263.8 C241,263.2 242.4,263.9 243.1,265.2 C243.9,266.5 243.8,268.1 242.8,268.6 L242.8,268.6 Z" id="Shape" fill="url(#linearGradient-96)"></path>
            <path d="M243.4,275.5 C242.6,275.5 241.9,274.4 241.9,273.1 C241.9,271.8 242.5,270.7 243.4,270.7 C244.2,270.7 244.9,271.8 244.9,273.1 C244.9,274.4 244.3,275.5 243.4,275.5 L243.4,275.5 Z" id="Shape" fill="url(#linearGradient-97)"></path>
            <path d="M90.5,253.4 C90.2,252.6 89.6,251.8 88.5,251.4 C87.4,251 86.4,251.1 85.6,251.6 C87.2,252.4 88.8,252.8 90.5,253.4 L90.5,253.4 Z" id="Shape" fill="url(#linearGradient-98)"></path>
            <path d="M81.8,249.9 C82.3,248.7 81.9,247.1 80.6,246.2 C79.2,245.2 77.4,245.3 76.6,246.5 C76.5,246.6 76.5,246.7 76.4,246.8 C78.2,248 79.8,248.9 81.8,249.9 L81.8,249.9 Z" id="Shape" fill="url(#linearGradient-99)"></path>
            <path d="M71.6,243.5 C72.2,243.9 72.9,244.4 73.5,244.9 C73.7,244.8 74,244.7 74.2,244.5 C75.4,243.5 75.4,241.5 74.2,240.2 C73,238.8 71.2,238.6 70,239.6 C69.4,240.1 69.1,240.8 69.1,241.6 C70,242.3 70.7,242.8 71.6,243.5 L71.6,243.5 Z" id="Shape" fill="url(#linearGradient-100)"></path>
            <path d="M64.4,231.5 C63,232.4 62.7,234.4 63.6,235.9 C64.6,237.4 66.5,237.9 67.8,236.9 C69.1,235.9 69.5,234 68.6,232.5 C67.7,231 65.8,230.6 64.4,231.5 L64.4,231.5 Z" id="Shape" fill="url(#linearGradient-101)"></path>
            <path d="M59.8,222.2 C58.2,222.6 57.2,224.3 57.6,226.1 C58,227.9 59.6,229 61.3,228.6 C62.9,228.2 63.9,226.5 63.5,224.7 C63.1,222.9 61.4,221.8 59.8,222.2 L59.8,222.2 Z" id="Shape" fill="url(#linearGradient-102)"></path>
            <path d="M57.5,212.5 C55.8,212.7 54.5,214.4 54.7,216.4 C54.9,218.3 56.5,219.6 58.3,219.4 C60,219.2 61.3,217.5 61.1,215.5 C60.9,213.6 59.4,212.3 57.5,212.5 L57.5,212.5 Z" id="Shape" fill="url(#linearGradient-103)"></path>
            <path d="M57.1,202.3 C59,202.3 60.5,203.9 60.5,205.9 C60.5,207.9 59,209.5 57.2,209.5 C55.3,209.5 53.8,207.9 53.8,205.9 C53.8,203.9 55.2,202.3 57.1,202.3 L57.1,202.3 Z" id="Shape" fill="url(#linearGradient-104)"></path>
            <path d="M59.5,192.9 C57.7,192.5 55.9,193.7 55.5,195.6 C55.1,197.4 56.2,199.4 58,199.7 C59.8,200.1 61.6,198.9 62,197 C62.4,195.2 61.3,193.4 59.5,192.9 L59.5,192.9 Z" id="Shape" fill="url(#linearGradient-105)"></path>
            <path d="M65.1,185.4 C63.7,184.4 61.7,184.7 60.6,186.2 C59.4,187.7 59.7,189.8 61,190.8 C62.4,191.8 64.4,191.5 65.5,190 C66.7,188.6 66.5,186.5 65.1,185.4 L65.1,185.4 Z" id="Shape" fill="url(#linearGradient-106)"></path>
            <path d="M71.7,178.7 C70.7,177.3 68.8,177 67.3,178 C65.8,179.1 65.5,181.1 66.4,182.5 C67.4,183.9 69.3,184.2 70.8,183.2 C72.3,182.1 72.7,180.1 71.7,178.7 L71.7,178.7 Z" id="Shape" fill="url(#linearGradient-107)"></path>
            <path d="M80.9,173.2 C80,171.9 78.1,171.6 76.6,172.7 C75.1,173.8 74.7,175.7 75.6,177 C76.5,178.3 78.4,178.6 79.9,177.5 C81.4,176.5 81.8,174.5 80.9,173.2 L80.9,173.2 Z" id="Shape" fill="url(#linearGradient-108)"></path>
            <path d="M98.8,374.4 C100,374.9 100.3,376.7 99.6,378.4 C98.9,380.1 97.4,381.2 96.2,380.7 C95,380.2 94.7,378.4 95.4,376.7 C96.1,375 97.6,373.9 98.8,374.4 L98.8,374.4 Z" id="Shape" fill="url(#linearGradient-109)"></path>
            <path d="M95.2,383.2 C96.3,383.4 97.1,384.9 96.8,386.6 C96.5,388.3 95.4,389.5 94.2,389.3 C93,389.1 92.3,387.6 92.6,385.9 C92.9,384.2 94.1,383 95.2,383.2 L95.2,383.2 Z" id="Shape" fill="url(#linearGradient-110)"></path>
            <path d="M93.9,392.1 C95.1,392 96.1,393.4 96.2,395.1 C96.3,396.8 95.4,398.2 94.3,398.3 C93.2,398.4 92.1,397 92,395.3 C91.9,393.6 92.7,392.2 93.9,392.1 L93.9,392.1 Z" id="Shape" fill="url(#linearGradient-111)"></path>
            <path d="M94.7,400.6 C95.8,400.4 97,401.6 97.4,403.2 C97.7,404.9 97.1,406.4 95.9,406.6 C94.8,406.8 93.6,405.6 93.2,404 C92.9,402.4 93.5,400.8 94.7,400.6 L94.7,400.6 Z" id="Shape" fill="url(#linearGradient-112)"></path>
            <path d="M96.4,409.1 C97.5,408.8 98.8,409.9 99.3,411.5 C99.8,413.2 99.2,414.7 98.1,415 C97,415.3 95.7,414.2 95.3,412.6 C94.8,411 95.3,409.4 96.4,409.1 L96.4,409.1 Z" id="Shape" fill="url(#linearGradient-113)"></path>
            <path d="M102.1,419.2 C101.9,418.6 101.8,418.2 101.6,417.5 C101,417 100.2,416.7 99.7,417 C98.7,417.4 98.5,419 99.1,420.4 C99.8,421.9 101.1,422.7 102,422.3 C102.3,422.2 102.6,421.8 102.8,421.5 C102.6,420.8 102.3,420 102.1,419.2 L102.1,419.2 Z" id="Shape" fill="url(#linearGradient-114)"></path>
            <path d="M114.1,310.5 C116,310.7 117.4,312.9 117.1,315.4 C116.9,317.9 115.1,319.8 113.2,319.6 C111.3,319.4 109.9,317.2 110.2,314.7 C110.5,312.2 112.2,310.3 114.1,310.5 L114.1,310.5 Z" id="Shape" fill="url(#linearGradient-115)"></path>
            <path d="M112.6,323.3 C114.5,323.3 116.1,325.3 116.1,327.9 C116.1,330.5 114.6,332.5 112.6,332.5 C110.7,332.5 109.1,330.5 109.1,327.9 C109.1,325.4 110.6,323.4 112.6,323.3 L112.6,323.3 Z" id="Shape" fill="url(#linearGradient-116)"></path>
            <path d="M111.7,335.7 C113.6,335.5 115.4,337.3 115.8,339.8 C116.1,342.3 114.8,344.6 112.9,344.8 C111,345 109.2,343.2 108.8,340.7 C108.4,338.2 109.8,335.9 111.7,335.7 L111.7,335.7 Z" id="Shape" fill="url(#linearGradient-117)"></path>
            <path d="M113.5,348.4 C115.4,348 117.4,349.6 117.9,352.1 C118.4,354.6 117.4,356.9 115.5,357.4 C113.6,357.8 111.6,356.2 111.1,353.7 C110.6,351.2 111.6,348.8 113.5,348.4 L113.5,348.4 Z" id="Shape" fill="url(#linearGradient-118)"></path>
            <path d="M116.4,361.3 C118.2,360.8 120.2,362.2 120.8,364.5 C121.4,366.8 120.5,369.1 118.7,369.6 C116.9,370.1 114.9,368.7 114.3,366.4 C113.6,364.1 114.6,361.8 116.4,361.3 L116.4,361.3 Z" id="Shape" fill="url(#linearGradient-119)"></path>
            <path d="M120,373.6 C121.6,373.1 123.4,374.4 124,376.3 C124.5,378.3 123.7,380.2 122,380.7 C120.4,381.2 118.6,379.9 118,378 C117.5,376 118.4,374 120,373.6 L120,373.6 Z" id="Shape" fill="url(#linearGradient-120)"></path>
            <path d="M123.6,384.1 C125.1,383.6 126.9,384.7 127.5,386.6 C128.1,388.5 127.4,390.4 125.9,390.9 C124.4,391.4 122.6,390.3 122,388.4 C121.4,386.5 122.1,384.6 123.6,384.1 L123.6,384.1 Z" id="Shape" fill="url(#linearGradient-121)"></path>
            <path d="M127.2,394 C128.4,393.3 130,394 130.8,395.4 C131.6,396.8 131.2,398.5 130,399.1 C128.8,399.8 127.2,399.1 126.4,397.7 C125.6,396.3 125.9,394.6 127.2,394 L127.2,394 Z" id="Shape" fill="url(#linearGradient-122)"></path>
            <path d="M131.6,401.7 C132.6,401.1 134,401.8 134.8,403.2 C135.5,404.6 135.3,406.1 134.3,406.7 C133.3,407.3 131.9,406.6 131.1,405.2 C130.3,403.8 130.6,402.2 131.6,401.7 L131.6,401.7 Z" id="Shape" fill="url(#linearGradient-123)"></path>
            <path d="M118.2,298.7 C120.1,299.4 121.1,301.7 120.4,303.9 C119.7,306.1 117.5,307.4 115.6,306.7 C113.7,306 112.7,303.7 113.4,301.5 C114,299.3 116.2,298 118.2,298.7 L118.2,298.7 Z" id="Shape" fill="url(#linearGradient-124)"></path>
            <path d="M116.9,292.1 C117,293.7 117.8,295 119.1,295.5 C121,296.2 123.3,294.9 124.2,292.5 C124.8,290.7 124.6,288.9 123.6,287.8 C120.9,289.6 119.1,290.7 116.9,292.1 L116.9,292.1 Z" id="Shape" fill="url(#linearGradient-125)"></path>
            <path d="M80.9,285.7 C80.6,284 78.9,283 76.8,283.1 C74.5,283.1 72.6,284.8 72.6,286.8 C72.6,287.6 72.9,288.2 73.3,288.7 C75.8,287.7 77.9,286.9 80.9,285.7 L80.9,285.7 Z" id="Shape" fill="url(#linearGradient-126)"></path>
            <path d="M69.4,285.8 C69.1,287.7 67,288.9 64.9,288.6 C62.7,288.2 61.2,286.4 61.5,284.5 C61.8,282.6 63.9,281.4 66,281.7 C68.2,282 69.7,283.9 69.4,285.8 L69.4,285.8 Z" id="Shape" fill="url(#linearGradient-127)"></path>
            <path d="M57.6,282.8 C56.8,284.5 54.4,285 52.3,284 C50.2,283 49.2,280.8 50,279.1 C50.8,277.4 53.2,276.9 55.3,277.9 C57.4,278.9 58.4,281.1 57.6,282.8 L57.6,282.8 Z" id="Shape" fill="url(#linearGradient-128)"></path>
            <path d="M45.4,277.1 C44.9,278.5 42.9,279 41.1,278.3 C39.2,277.6 38.2,275.9 38.7,274.5 C39.2,273.1 41.2,272.6 43,273.3 C44.9,274 46,275.7 45.4,277.1 L45.4,277.1 Z" id="Shape" fill="url(#linearGradient-129)"></path>
            <path d="M34.2,272 C32.1,272.2 29.9,272.3 27.9,273 C27.8,273.2 27.8,273.4 27.8,273.6 C27.8,273.9 28,274 28.1,274.3 C29.4,274.5 30.7,274.7 31.9,275.1 C32.4,275.3 33.1,275.4 33.7,275.6 C34.8,275.1 35.1,274.6 35.1,273.6 C34.9,272.8 34.8,272.5 34.2,272 L34.2,272 Z" id="Shape" fill="url(#linearGradient-130)"></path>
            <path d="M40.5,376.1 C39.4,376.6 38.1,375.9 37.5,374.5 C36.9,373.1 37.3,371.7 38.3,371.2 C39.3,370.7 40.7,371.4 41.3,372.8 C41.9,374.2 41.6,375.6 40.5,376.1 L40.5,376.1 Z" id="Shape" fill="url(#linearGradient-131)"></path>
            <g transform="translate(189.000000, 127.000000)" id="Shape">
                <path d="M6.4,15.3 L8.3,17.2 C8.3,17.2 13.3,14.9 14.7,13.1 C15.6,11.9 16.6,7.5 16.3,3.8 C16.3,3.8 14.7,9.6 5,13 L6.4,15.3 L6.4,15.3 Z" fill="url(#radialGradient-132)"></path>
                <path d="M14.6,14.1 C10.8,14.6 8.6,14.8 8.6,14.8 L8.3,17.6 L10.2,20.3 C10.2,20.3 14.2,19.4 16,18.6 C17.9,17.8 20.2,14.1 20.4,8.6 C20.3,8.5 18.9,13.5 14.6,14.1 L14.6,14.1 Z" fill="url(#radialGradient-133)"></path>
                <path d="M2.8,14.1 L5.2,14.9 L9.9,10.5 C10.8,9.7 12.4,6.4 10.6,0.9 C10.6,0.9 10.7,4.9 6.4,7.1 C1.4,9.7 0.7,13 0.6,13 L2.8,14.1 L2.8,14.1 Z" fill="url(#radialGradient-134)"></path>
            </g>
            <path d="M190.5,138.5 C182.8,137.7 175.8,142.4 175,148.9 C174.4,153.4 176.9,157.7 181,160.2 C183.3,158.9 186.3,158.1 189.7,158.1 C192.7,158.1 195.5,158.7 197.7,159.8 C200.5,157.9 202.5,155.1 202.9,151.8 C203.8,145.3 198.3,139.3 190.5,138.5 L190.5,138.5 Z" id="Shape" fill="#FFFFFF"></path>
            <circle id="Oval" fill="#FFFFFF" cx="145.4" cy="151.3" r="13.3"></circle>
            <circle id="Oval" fill="#FFFFFF" cx="189" cy="151.3" r="13.3"></circle>
            <path d="M191.2,143.4 C191,145.5 189.9,147.3 187.9,147.8 C185.8,148.5 183.6,147.1 182.8,144.9 C181,146.8 179.9,149.6 180.6,152.5 C181.5,156.6 185.4,159 189.4,157.9 C193.4,156.9 195.8,152.5 194.9,148.5 C194.4,146 193,144.3 191.2,143.4 L191.2,143.4 Z" id="Shape" fill="url(#radialGradient-135)"></path>
            <g transform="translate(124.000000, 127.000000)" id="Shape">
                <path d="M14.5,15.3 L12.6,17.2 C12.6,17.2 7.6,14.9 6.2,13.1 C5.3,11.9 4.3,7.5 4.6,3.8 C4.6,3.8 6.2,9.6 15.9,13 L14.5,15.3 L14.5,15.3 Z" fill="url(#radialGradient-136)"></path>
                <path d="M6.4,14.1 C10.2,14.6 12.4,14.8 12.4,14.8 L12.7,17.6 L10.8,20.3 C10.8,20.3 6.8,19.4 5,18.6 C3.1,17.8 0.8,14.1 0.6,8.6 C0.6,8.5 2.1,13.5 6.4,14.1 L6.4,14.1 Z" fill="url(#radialGradient-137)"></path>
                <path d="M18.1,14.1 L15.7,14.9 L11,10.5 C10.1,9.7 8.5,6.4 10.3,0.9 C10.3,0.9 10.2,4.9 14.5,7.1 C19.5,9.7 20.2,13 20.3,13 L18.1,14.1 L18.1,14.1 Z" fill="url(#radialGradient-138)"></path>
            </g>
            <path d="M143.9,138.5 C151.7,137.7 158.7,142.4 159.6,148.9 C160.2,153.4 157.7,157.7 153.5,160.2 C151.2,158.9 148.1,158.1 144.7,158.1 C141.6,158.1 138.8,158.7 136.6,159.8 C133.8,157.9 131.8,155.1 131.3,151.8 C130.4,145.3 136.1,139.3 143.9,138.5 L143.9,138.5 Z" id="Shape" fill="#FFFFFF"></path>
            <path d="M139.5,148.4 C138.7,152.5 141,156.8 145,157.8 C149,158.9 152.9,156.5 153.8,152.4 C154.5,149.6 153.5,146.7 151.6,144.8 C150.8,147.1 148.6,148.4 146.5,147.7 C144.6,147.1 143.4,145.3 143.2,143.3 C141.4,144.3 140,146 139.5,148.4 L139.5,148.4 Z" id="Shape" fill="url(#radialGradient-139)"></path>
            <path d="M189,134 C184.1,134 179.7,136 176.5,139.1 C174,138.2 171.1,137.6 167.9,137.6 C164.3,137.6 161,138.3 158.2,139.5 C155,136.1 150.5,133.9 145.3,133.9 C135.7,133.9 128,141.4 128,150.7 C128,160 135.7,167.5 145.3,167.5 C154.9,167.5 162.6,160 162.6,150.7 C162.6,147.8 161.9,145.1 160.5,142.8 C162.6,142 165.1,141.5 167.8,141.5 C169.9,141.5 172,141.8 173.8,142.4 C172.3,144.9 171.5,147.7 171.5,150.7 C171.5,160 179.2,167.5 188.8,167.5 C198.4,167.5 206.1,160 206.1,150.7 C206.1,141.4 198.6,134 189,134 L189,134 Z M145.4,162.8 C138.6,162.8 133,157.4 133,150.8 C133,144.2 138.5,138.8 145.4,138.8 C152.2,138.8 157.8,144.2 157.8,150.8 C157.8,157.4 152.3,162.8 145.4,162.8 L145.4,162.8 Z M189,162.8 C182.2,162.8 176.6,157.4 176.6,150.8 C176.6,144.2 182.1,138.8 189,138.8 C195.8,138.8 201.4,144.2 201.4,150.8 C201.4,157.4 195.8,162.8 189,162.8 L189,162.8 Z" id="Shape" fill="url(#linearGradient-140)"></path>
            <path d="M138.3,230.2 C114.9,264.1 81.4,245.3 81.4,245.3 C105.3,266.7 127.6,250.1 127.6,250.1 L138.7,230.1 L138.3,230.2 L138.3,230.2 Z" id="Shape" fill="url(#linearGradient-141)"></path>
            <path d="M87.6,170.5 C86.8,171.9 85.1,172.4 83.9,171.7 C82.7,171 82.4,169.2 83.2,167.8 C84,166.4 85.7,165.9 86.9,166.6 C88.1,167.3 88.4,169.1 87.6,170.5 L87.6,170.5 Z" id="Shape" fill="url(#linearGradient-142)"></path>
            <path d="M91.1,161.8 C90.7,163.3 89.4,164.2 88.1,163.9 C86.8,163.6 86.1,162.1 86.4,160.6 C86.8,159.1 88.1,158.2 89.4,158.5 C90.7,158.8 91.4,160.3 91.1,161.8 L91.1,161.8 Z" id="Shape" fill="url(#linearGradient-143)"></path>
            <path d="M69.3,368.4 L69.3,368.4 C69.2,368.8 69.2,369.3 69.1,369.7 C68.9,371.5 68.3,373.3 67.5,374.8 C67.7,374.9 67.9,375 68.1,375 C69.6,375.2 71,374 71.3,372.1 C71.6,370.2 70.8,368.7 69.3,368.4 L69.3,368.4 Z" id="Shape" fill="url(#linearGradient-144)"></path>
            <path d="M65.9,382.9 C67.4,381.7 67.8,379.9 66.9,378.7 C66.5,378.2 66,378 65.4,377.9 C64.2,379.2 62.7,380.5 61.1,381.2 C61,381.8 61.2,382.4 61.6,382.9 C62.5,384 64.5,384 65.9,382.9 L65.9,382.9 Z" id="Shape" fill="url(#linearGradient-145)"></path>
            <path d="M58,383.2 C58,382.8 57.9,382.4 57.6,382 C56,382.2 54.5,382.4 52.8,382.2 C52.4,382.2 52,382.1 51.6,382 C51.4,382.4 51.3,382.8 51.3,383.2 C51.3,384.7 52.8,385.9 54.7,385.9 C56.5,386 58,384.7 58,383.2 L58,383.2 Z" id="Shape" fill="url(#linearGradient-146)"></path>
            <path d="M47.6,383.3 C48.3,382.7 48.5,381.7 48.3,380.8 C47.1,380 46.1,379.1 45.3,378 C44.5,377.9 43.8,378.1 43.2,378.6 C42.1,379.6 42.2,381.5 43.4,382.8 C44.6,384.2 46.5,384.3 47.6,383.3 L47.6,383.3 Z" id="Shape" fill="url(#linearGradient-147)"></path>
            <path d="M105.5,296 C105.5,296 93.8,329.3 107.3,366.5 C120.8,403.7 130.3,412.9 134.9,411.1 C134.9,411.1 129.5,410.2 121.9,394.1 C114.3,378 103.5,345 105.8,325.4 C108.1,305.8 111.2,298.2 117.4,289.3 L105.5,296 L105.5,296 Z" id="Shape" fill="url(#linearGradient-148)"></path>
            <path d="M156.9,234.7 C156.1,235.6 155.3,236.4 154.5,237.2 C152.2,240.2 149.9,243.1 147.3,245.8 C145.5,247.6 143.8,249.5 142,251.4 C140.5,253.4 139.1,255.4 137.8,257.5 C133.7,263.9 131.7,271.6 127.5,276.1 C123.8,280.1 119,283.4 114,285.7 C108.4,289.5 101.3,293 93,296.2 C77.4,302.2 67.9,303.1 63.4,310.9 C59.5,317.7 64.1,325.6 64.1,325.6 C63,310.4 79.3,309.8 90.3,304.7 C129.1,288.9 131.9,279.8 131.9,279.8 C131.9,265.6 141.5,253.2 149.1,245.4 C152.9,241.5 156.6,236.5 159.4,232.4 C158.5,233.2 157.5,234 156.9,234.7 L156.9,234.7 Z" id="Shape" fill="url(#linearGradient-149)"></path>
            <path d="M193.3,272.5 L193.3,272.5 C194.9,268.9 197.9,264.2 200.4,261.3 C196.3,263.6 192.5,268.7 190.9,271 C180.9,263.8 176.6,254.3 176.6,254.3 C177.6,262.1 180.7,267.6 191.8,276.6 C192.1,275.6 192.4,274.7 192.7,273.8 C192.7,273.7 192.8,273.5 192.9,273.4 C193.1,273 193.2,272.8 193.3,272.5 L193.3,272.5 Z" id="Shape" fill="url(#linearGradient-150)"></path>
            <path d="M202.9,356.5 C198.7,357.5 194.5,357 190.9,356.1 C186.8,354.9 181.9,352.5 180.6,347.8 C180.6,347.8 180.6,358.9 192.6,361.2 C196.3,361.9 198.9,362.6 201.6,362.3 C212.6,360.7 221.8,342.7 221.8,342.7 C221.8,342.7 213.5,354 202.9,356.5 L202.9,356.5 Z" id="Shape" fill="url(#linearGradient-151)"></path>
        </g>
    </g>
</svg>