<svg width="256" height="566" version="1" xmlns="http://www.w3.org/2000/svg" preserveAspectRatio="xMidYMid"><path d="M197 549l6-91 15-25s-34 14-92 14c-57 0-90-14-90-14l17 28 6 88c0 9 31 17 69 17s69-8 69-17M180 126l12-45 63-66-17-14-67 71-13 53h-30c-70 0-127 8-127 18s57 18 127 18 127-8 127-18c0-7-30-14-75-17" fill="#D34A47"/><path d="M174 152h-10c-7 0-13 0-15-2l-1-2c1-1 1-2 3-2l1 1-1 1 13 2 13-2-2-1 1-1c2 0 3 1 3 2 0 3-3 3-5 4" fill="#FFF"/><path d="M255 15c1-2-1-6-6-10-4-4-9-6-11-4s1 6 5 10c5 4 10 6 12 4M194 328c-1-15 32-35 23-36-18 1-27 21-36 43-4 7-15 41-23 37-7-5 10-32 15-48-6 4-26 20-31 5-9 7-27 11-25-8-4 8-15 19-27 15-16-6 9-57 16-55 6 3-2 14-4 19-4 10-9 22-6 25 6 4 22-17 22-17 3-4 11-29 18-26 7 2-17 36-8 43 2 1 9-1 14-6 3-3 2-10 11-33 10-22 18-51 25-48 6 2 1 16-2 22-11 25-30 67-21 64s14-4 23-14c8-10 8-27 14-27 6 1 5 6 3 10 6-6 28-20 33-7 6 17-31 40-22 39s24-10 30-19l17-153s-17 14-127 14C17 167 2 153 2 153l14 140c8-22 26-66 55-65 13 1 31 26 16 27-7 1-7-12-15-14-5-2-13 3-18 7-9 10-30 48-28 66 4 24 33-8 38-17 4-7 6-27 14-25s-1 23-6 41c-6 20-10 42-18 39-7-2 5-28 5-33-8 7-21 24-39 15l10 88s24 18 96 18 97-18 97-18l11-101c-9 9-38 25-40 7" fill="#D34A47"/></svg>