<svg width="256" height="361" version="1" xmlns="http://www.w3.org/2000/svg" preserveAspectRatio="xMidYMid"><path d="M256 71l-24 260-104 29-104-29L0 71h256z" fill="#E44D26"/><path d="M128 338l84-23 20-223H128v246z" fill="#F16529"/><path d="M83 156h45v-32H48l1 9 8 88h71v-32H86l-3-33zM90 237H58l4 50 66 18v-33l-36-10-2-25z" fill="#EBEBEB"/><path d="M24 0h16v16h15V0h16v49H55V32H40v17H24V0zM93 16H79V0h44v16h-14v33H93V16zM130 0h17l11 17 10-17h17v49h-16V24l-11 18-12-18v25h-16V0zM193 0h16v33h23v16h-39V0z" fill="#fff"/><path d="M128 221h39l-3 41-36 10v33l65-18 1-6 7-84 1-8h-74v32zM128 156h77l1-7 1-16 1-9h-80v32z" fill="#FFF"/></svg>