<svg width="256" height="252" xmlns="http://www.w3.org/2000/svg" preserveAspectRatio="xMidYMid"><path d="M256 131.5927c0-20.2378-5.2324-39.2506-14.4078-55.7718C280.702-12.693 199.6855.2718 195.1748 1.1544c-17.1642 3.3586-33.0438 8.7508-47.6913 15.5861-2.16-.1216-4.333-.1884-6.5229-.1884-54.665 0-100.4228 38.1282-112.134 89.2413C57.6388 73.47 77.8026 60.4279 89.8774 55.2087c-1.9274 1.7222-3.8142 3.4636-5.67 5.218-.6179.5832-1.213 1.1748-1.8225 1.7616-1.2237 1.1772-2.445 2.3556-3.6377 3.5447-.7097.7073-1.4002 1.4205-2.0992 2.1326-1.0579 1.077-2.1134 2.1528-3.1463 3.2358-.7335.7693-1.4491 1.541-2.1695 2.3114-.965 1.0329-1.9238 2.067-2.8649 3.1046-.7311.8063-1.4503 1.6125-2.1683 2.4212a319.3075 319.3075 0 0 0-2.6478 3.0151 311.8845 311.8845 0 0 0-2.148 2.5059 331.8404 331.8404 0 0 0-2.4499 2.9269c-.7144.8635-1.4264 1.7258-2.1253 2.5881-.7562.9327-1.4957 1.8642-2.234 2.7945-.7156.9017-1.4312 1.8022-2.1301 2.7027-.6656.8575-1.312 1.7115-1.9632 2.5667-.7347.966-1.4754 1.9321-2.191 2.8935-.5117.6881-1.003 1.3692-1.5052 2.055-4.5454 6.202-8.6983 12.2848-12.4494 18.1278-.0095.0143-.019.0286-.0274.043-.9876 1.5385-1.9405 3.0544-2.8744 4.5572-.0501.0811-.1026.1634-.1527.2457a361.8638 361.8638 0 0 0-2.7181 4.4583c-.031.0513-.0633.1038-.0943.155-2.3663 3.9491-4.5608 7.7562-6.5371 11.3379-10.361 18.7766-15.405 31.8951-15.6232 32.674-32.7181 116.9703 69.396 67.5747 83.6451 60.2014 15.343 7.5796 32.6156 11.846 50.8877 11.846 50.0218 0 92.5809-31.9298 108.4223-76.5189h-60.446c-8.944 15.1103-26.163 25.3449-45.9451 25.3449-28.9838 0-52.4787-21.96-52.4787-49.0497H255.053c.6238-4.852.947-9.7969.947-14.817zM234.51 18.3865c9.9065 6.6862 17.8523 17.1868 4.2066 52.549-13.0875-21.0475-32.7777-37.558-56.1809-46.6332 10.646-5.1418 37.0107-16.0168 51.9743-5.9158zM23.9795 234.5524c-8.0686-8.275-9.495-28.4292 8.3096-65.1548 8.9858 25.835 26.9168 47.4826 50.0933 61.2213-11.5262 6.344-42.126 20.6277-58.4029 3.9335zM90.259 114.9509c.9196-26.3288 23.8337-47.4097 51.9874-47.4097 28.1524 0 51.0677 21.081 51.9873 47.4097H90.259z" fill="#1EBBEE"/></svg>