<svg xmlns="http://www.w3.org/2000/svg" viewBox="0 0 261 433"><style>.st0{fill:#fff}.st2{fill:none;stroke:#000;stroke-width:2;stroke-linecap:round;stroke-linejoin:round;stroke-miterlimit:10}</style><switch><g><g id="Слой_1"><path class="st0" d="M261 433H0V0h261v433zM120.2 321.8c.8-.9 2.8-2.4 3.5-4.4.3-.9-1.9-3.6-3.3-4-12.5-3.3-24.8-7.2-38-8-7-.4-14-1.5-20.7-5.6-8.9-5.4-19.6-4.2-29.8-3-2.1.3-5.4 2.3-5.7 3.9-.4 2 1.9 4.5 3 6.8.9 1.8 2 3.6 2.5 5.6.9 3.8.5 8.2 2.4 11.4 6.1 10.3 14.3 18.6 25.6 23.7 10.1 4.6 21.1 6.7 30.4 13.1 1.7 1.1 4.1 1.5 6.2 1.6 11 .4 21.3 3.5 31.4 7.5 6.8 2.7 7.6 4.4 4.3 10.9-.8 1.6-2.6 3-4.3 3.7-2.7 1.1-6 1-8.6 2.4-2.9 1.5-5.8 3.7-7.5 6.3-.6.9 2.1 5.6 3.9 6 5.7 1.3 8.9 5.6 13 8.9 6.7 5.2 13.5 10.3 20.3 15.3 2.4 1.8 4.7 1.8 7.6-.1 13.5-8.8 27.4-17.1 40.8-26 9.8-6.5 19.3-13.6 28.9-20.5 2.4-1.7 3-3.9 2.3-7-3.4-16.4-6.8-32.9-9.9-49.4-.8-4.3-2-9.3-.6-13.1 5.4-14.4 10-28.6 6.8-44.3-.3-1.5.3-3.1.7-4.7 1-4.8 2.3-9.5 2.9-14.4.5-4.6.2-9.3 0-14-.2-4.8-.1-9.6-1-14.3-2-10.6-4.4-21.1-6.7-31.9 1.6-.3 2.4-.5 3.1-.7 7.9-1.8 17.6-11.7 18.1-19.1.3-4.4.5-9.2-.7-13.4-3.1-11.2-7.9-22-10.4-33.3-2.8-12.5-10.5-20-21.1-25.6-2.6-1.4-5.1-3.2-7.2-5.3-2-2-2.5-4.3-1.2-7.6 2-4.7 3.2-9.8 3.8-14.9.7-5.6.6-11.3.6-16.9 0-12.1-1.1-24-9.2-33.8-6.9-8.4-17.7-11.5-26.8-8.2-9.4 3.3-12.9 10.8-14.3 19.9-.2 1.4-.6 2.8-1.2 4-.8 1.7-2.6 3.2-2.7 4.9-.7 15-.5 30-1.7 44.9-.8 10.5-2.8 20.9-14.5 26-7.8 3.5-12 10.6-14.6 18.7-4.3 13.4-3.6 26.9-2 40.6 2 17.4 5.4 34.1 18.3 47.2.5.6.9 1.4 1.1 2.2 1.5 8.7 3.6 17.3 4.2 26 1.2 16.9 1.9 33.9 2.3 50.9.4 14.3.1 28.6.1 43.1-8.8-4.4-16.9-8.3-24.4-12z"/><path d="M120.2 321.8c7.5 3.7 15.6 7.7 24.6 12.1 0-14.5.3-28.8-.1-43.1-.4-17-1.1-33.9-2.3-50.9-.6-8.7-2.7-17.4-4.2-26-.1-.8-.5-1.6-1.1-2.2-12.9-13.1-16.3-29.9-18.3-47.2-1.6-13.7-2.2-27.2 2-40.6 2.6-8.1 6.7-15.3 14.6-18.7 11.7-5.2 13.7-15.5 14.5-26 1.2-14.9 1-30 1.7-44.9.1-1.6 1.9-3.2 2.7-4.9.6-1.3 1-2.7 1.2-4 1.4-9.1 4.9-16.6 14.3-19.9 9.2-3.2 19.9-.2 26.8 8.2 8.1 9.8 9.2 21.7 9.2 33.8 0 5.6.1 11.3-.6 16.9-.6 5.1-1.8 10.2-3.8 14.9-1.4 3.2-.8 5.6 1.2 7.6 2 2.1 4.6 3.9 7.2 5.3 10.6 5.6 18.2 13.1 21.1 25.6 2.6 11.3 7.3 22.1 10.4 33.3 1.2 4.2 1 8.9.7 13.4-.5 7.3-10.3 17.3-18.1 19.1-.8.2-1.5.3-3.1.7 2.3 10.8 4.8 21.3 6.7 31.9.9 4.7.8 9.5 1 14.3.2 4.7.4 9.4 0 14-.5 4.8-1.9 9.6-2.9 14.4-.3 1.6-1 3.2-.7 4.7 3.3 15.6-1.4 29.9-6.8 44.3-1.4 3.8-.2 8.8.6 13.1 3.1 16.5 6.4 33 9.9 49.4.6 3 .1 5.2-2.3 7-9.6 6.9-19 14-28.9 20.5-13.5 8.9-27.3 17.2-40.8 26-2.9 1.9-5.2 1.9-7.6.1-6.8-5-13.6-10-20.3-15.3-4.1-3.2-7.3-7.6-13-8.9-1.8-.4-4.5-5.1-3.9-6 1.7-2.6 4.6-4.8 7.5-6.3 2.6-1.3 5.8-1.3 8.6-2.4 1.7-.7 3.5-2.1 4.3-3.7 3.4-6.5 2.5-8.2-4.3-10.9-10.1-4-20.4-7.1-31.4-7.5-2.1-.1-4.6-.4-6.2-1.6-9.3-6.4-20.4-8.5-30.4-13.1-11.6-5.3-19.8-13.5-25.9-23.8-1.9-3.1-1.4-7.6-2.4-11.4-.5-1.9-1.6-3.7-2.5-5.6-1.1-2.3-3.3-4.8-3-6.8.3-1.6 3.6-3.7 5.7-3.9 10.1-1.3 20.9-2.4 29.8 3 6.7 4.1 13.7 5.2 20.7 5.6 13.1.8 25.5 4.7 38 8 1.5.4 3.6 3.1 3.3 4-.6 1.9-2.6 3.4-3.4 4.4zm21.4-115.1c0-7.5.4-14.6-.1-21.6-.5-7.6-1.6-15.1-2.9-22.6-1.2-7.2-3-14.3-4.4-21.5-.3-1.8-.1-3.7-.1-5.5 1.6.8 2.2 1.7 2.4 2.7 2.1 9.7 4.2 19.5 6.1 29.3.9 4.7 1.5 9.5 1.6 14.3.2 18.4-.7 37 5.3 54.9.6 1.7.3 3.6.4 5.5.6 15.9 2.3 31.5 9.2 46.2 1.9 4.1 4.7 3 7.4 2.3 2.5-.7 4.6-1.7 4.1-5.6-.7-5.7-.5-11.5-.2-17.3.7-12.4 1.8-24.9 2.6-37.3.6-9.8 1.1-19.6 1.3-29.4.2-11.4 0-22.8 0-34.2v-3c.1-3.3 1.1-7 .1-10-4-11.4-8.5-22.7-13.1-33.9-1.8-4.3-7.4-5-11.1-2.3-3.8 2.7-7.9 4.9-13.4 3.2 2.1-3.7 3.8-6.5 5.3-9.4 1.5-2.9 2.6-5.9 4.2-9.5-7.7 4.6-16.8 14.4-17.7 19.2-1.5 8.5-2.8 17.1-3.9 25.7-2 14.6 2.7 28.4 6.6 42.1 1.7 6.1 3.8 13.2 10.3 17.7zM179 343.8c4.9-8.1 11.4-14.5 11.4-24.4 0-10.3 1.7-20.6 2.8-30.8.2-1.9 1-3.7 1.5-5.6l1.5.3c-.3 3.9-.7 7.7-1 11.6-1.5 17.1-.6 34.7-12 49.4-.2.2-.1.6-.3 1.6 3 1.4 6.2 2.9 9.5 4.4 3.1-5.3 6.2-9.9 8.5-14.9 7.2-15.7 14.4-31.4 20.8-47.4 2.7-6.8 2.2-14.3.1-22.7-4.9 3.2-9 6.4-13.5 8.7-14.5 7.3-29.2 14.3-43.9 21.3-3.5 1.6-4.1 3.7-2.7 7.1 5.7 13.7 11.5 27.5 17.3 41.4zm.2-261.6c1.3-1.1 3.8-2.3 4.2-3.9 1.3-5.7 5-8 10.2-9.4 2.9-.7 4.4-2.8 3.6-6.3-.9-4-1.4-8.2-1.2-12.3.1-1.8 1.9-3.7 3.4-5.1.9-.9 2.6-1.1 4.4-1.7-1.1-5.3-2.3-10.3-3.1-15.4-1-6.7-4.5-11.7-9.5-15.9-10.3-8.7-25.2-3.9-28 9.4-1.2 5.5-1.4 11.2-1.8 16.8-.2 3.2-.7 6.7 3.2 8.7.8.4.9 2.2 1.6 4.4-2.9-1.9-2.8.6-4.5-.5-.5.3-.7 0-1.2.3 1.6 4.6.8 6.6 3.2 10.8.9 1.6 4.8 1.5 6.9 2.1 1.1 3.2 1.8 6.4 3.1 9.3 1.4 2.9 3.4 5.4 5.5 8.7zm15 101.9c4.3 28.2 8.8 57.5 13.4 87.1 2.5-1.7 4.6-3.1 6.6-4.6 7.9-5.9 13.1-13 11.6-23.7-.6-4.6.1-9.3.1-13.9 0-3.1.2-6.4-.3-9.4-1.9-10.3-4.3-20.5-6.1-30.8-.7-3.7-1.8-6.1-6-6.2-2-.1-3.9-1.2-5.9-1.8.1.3.2.7.3 1-4.2.6-8.3 1.3-13.7 2.3zm15.3-74.9c-2.2 1.9-2.9 3.9-1.4 7.1 1 2.2.7 5.2.3 7.8-1.1 7.2-2.6 14.4-3.9 21.6-1 5.8-.3 6.7 5.4 7 1.6.1 3.3 0 5.3 0 .9-8.8 1.8-17.2 2.6-25.7.7.1 1.5.2 2.2.3-.6 8.5-1.3 17-2 26h10.8c.1.4.1.8.2 1.3-2.8.9-5.7 1.7-8.6 2.6.9 4.8 2.5 9.5-1.5 14.4-1.5-6.9 3.8-17.7-9.3-16 0 6.1.3 11.9-.1 17.6-.4 5.1.2 6.2 5.7 6.7.6-1.2 1.2-2.4 2.4-4.7.7 2.5 1 4 1.4 5.4 8.1.6 18.9-7.6 19.8-15.5.5-4.4.9-9.2-.3-13.4-4.1-14.2-8.5-28.3-13.6-42.2-2.9-7.8-10.3-11.5-17.2-15.3-.3.3-.7.6-1 .9 4 5.5 8 10.9 12 16.4l-.9 1.2c-2.4-1-5.2-2.2-8.3-3.5zm-60.3 170.2c-.6.1-1.2.2-1.9.4 0 4.8.1 9.6 0 14.4-.6 20.9-1.4 41.9-1.9 62.8-.1 2.5.4 6.1 2 7.3 4.7 3.6 9.7 5 15.8 1 8.2-5.4 12.5-16.5 8.1-25.3-3.3-6.7-7.5-13-10.4-19.8-2.8-6.7-4.8-13.7-6.7-20.7-2-6.7-3.4-13.5-5-20.1zm65.6 36.4l-1.2-.3c-1.2 10.9-13.2 17.4-10.9 29.8.1.4-.6.9-.6 1.3 0 8.6 0 17.2 6.8 23.9 1.1 1.1 3.1 2.8 2.9 3.7-.9 3.5-2.5 6.8-3.9 10.1-.5 1.2-1.3 2.2-2 3.3 5.8-3 10.9-6.4 15.9-10 3.1-2.3 4.9-4.9 3.9-9.3-3-13.8-5.6-27.7-8.4-41.5-.9-3.7-1.7-7.4-2.5-11zm-30.5 87.4c-1.8-6.2 1.2-10.3 5.1-13.2 5.4-4 4.1-11 7.8-15.6.2-.2.1-.7 0-.9-3.2-5.3-6.4-10.6-10.1-16.5-4.1 5.6-7.8 10.6-11.5 15.7.5.1 1 .1 1.5.2 0 3.3.4 6.6-.1 9.8-.3 2.2-1.6 4.2-2.8 6.1-.8 1.3-2.1 2.9-3.3 3-1.1.1-2.3-1.7-4.7-3.7.7 2.6.9 4.3 1.6 5.6 3.8 6.8 3.4 12.7-1.4 18.9-.5.6-1 1.3-2.2 2.9 7.4-4.7 13.8-8.5 20.1-12.3zM167.4 66.8c-.5-.1-.9-.1-1.4-.2-.1 1.4-.2 2.8-.4 4.2-.8 7-.8 14.3-2.7 21-1.6 5.7.7 13.2 6.6 14.8 5.6 1.5 16.7-2.3 19.7-7.2 1.4-2.2 2-5 3.1-7.9-14.3 2.4-23-6.5-24.9-24.7zm25.6 85.3c6-.1 9.4-2.4 9.3-8.7 0-2.1.7-4.3 1.3-6.3 3.5-12.1 3.9-23.4-8.4-33.2-.7 16.5-1.4 32.3-2.2 48.2zm-28.9-72.6c-.7-.2-1.5-.5-2.2-.7-9.7 8.5-8.4 20.7-8.9 32.3-.6-.1-1.3-.2-1.9-.3-.3-2.9-.5-5.8-.9-10.2-3.3 6.8-5.9 12.1-9 18.6 3-1.4 5-1.9 6.6-3 7.2-5 13.3-3.4 16.9 4.7 2.5 5.5 4.9 11.1 7.4 16.7-.6-9.2-5-16.7-10.5-23.6-4.2-5.4-5.3-17.7-2.4-22.7 2.1-3.7 3.3-7.9 4.9-11.8zm31.6 99.1c4.7 3.9 8.7 3.2 10.1-2.2 1.2-4.7 1.8-9.8 1.5-14.7-.2-2.7-2-6.5-4.2-7.6-3.3-1.7-7.3-.6-11 3.3h8.9c-1.3 4.2-8.2 4.9-5.6 10.5 1.9.1 3.7.3 5.6.4-.7 4.3-9 .2-6.6 7.1 2.5-.4 5-.8 7.4-1.2.1.5.3 1 .4 1.4-2.1 1.1-4.3 2-6.5 3zm-19.3-11.4c1.5 3.3 2.5 6.7 4.4 9.4 1 1.5 3.8 2.9 5.4 2.5 1.9-.5 4.1-2.6 4.7-4.5 1.1-3.5 1.2-7.4 1.8-11.1-5-2.3-15.8-.6-16.3 3.7zm-49.8-47c-.8-.1-1.7-.1-2.5-.2-1.4 7.9-3.7 15.9-3.9 23.8-.4 20.8 2.5 41.1 12.9 59.7 1 1.8 2.7 3.2 4.1 4.7-16-28-19-57.2-10.6-88zm30.5 174.6c.2.1.3.2.5.3-.4-2.2-.2-4.6-1.2-6.6-5.8-12.4-8-25.6-8.7-39.1-.3-4.9-.9-9.9-1.6-14.8-.9-5.9-2.1-11.7-3.1-17.6-.3-1.6-.5-3.2-.8-4.9-.4.1-.9.1-1.3.2.2 2.8.3 5.5.6 8.3 1.3 10.7 2.6 21.3 4.1 32 1.1 7.7 2.2 15.4 4.2 22.9 1.8 6.6 4.8 12.9 7.3 19.3zm29.5-210.4c6.3 2.2 9.7-1.1 11.5-6 .5-1.4-1.2-5.1-2.1-5.2-2.7-.2-6 .1-7.9 1.7-1.3 1-.5 4.5-.8 6.9 0 .8-.4 1.6-.7 2.6zm11.1 3.3c-3.8 3.1.1 15.2 7.9 22.4.6-2.3 1.4-4.9.6-6.8-2.4-5.4-5.6-10.4-8.5-15.6zm-44.6-9.6c7.8-6.2 7.7-14.2 0-21.5v21.5zm44.8-25.9c.8 3.7 1.5 6.9 2 10.2.2 1.5-.1 3.1-.2 4.7-.1 1.7-.2 3.4-.2 5.1.8 0 1.5.1 2.3.1.6-6.8 1.1-13.7 1.7-20.7-2.2.2-3.5.4-5.6.6zm-44.7 370c3.2-2 5.1-3.2 7.5-4.6-9.2-2-7.9-9.4-10.2-15.2.8 6.2 1.7 12.4 2.7 19.8zm4.5-123.2c-.5.2-1.1.4-1.6.5 2.4 7.1 4.9 14.2 7.3 21.3.4-.1.8-.3 1.2-.4-2.3-7.1-4.6-14.2-6.9-21.4zm41.2 57.8c.6 3.6-7.6 3.7-3.2 9.2 3.1-2.5 7.1-4.2 3.2-9.2zm-18.8-9.3c.2 5.1 3.8 5.7 6.5 6.8.8.3 2.2-.7 4.3-1.4-4.2-2-6.9-3.4-10.8-5.4zM161.4 15.3c-4.3 7.6-4 15.2-3.2 23.4 1.1-8 2.1-15.5 3.2-23.4zm7.7 350.2c4.7-6.7 9.5-12.3 8.1-19.2-2.3 5.6-5 11.9-8.1 19.2zm-7.6 33.9c-2.6 2.1-4.9 3-5.5 4.6-.4 1 1.8 2.9 3.6 5.4.7-3.8 1.1-6.1 1.9-10z"/><path class="st0" d="M141.6 206.7c-6.5-4.5-8.6-11.6-10.4-17.9-3.9-13.7-8.6-27.4-6.6-42.1 1.2-8.6 2.5-17.1 3.9-25.7.8-4.8 9.9-14.6 17.7-19.2-1.6 3.6-2.7 6.6-4.2 9.5-1.5 3-3.2 5.8-5.3 9.4 5.5 1.7 9.6-.5 13.4-3.2 3.7-2.7 9.3-2 11.1 2.3 4.7 11.2 9.1 22.4 13.1 33.9 1 2.9 0 6.6-.1 10v3c0 11.4.2 22.8 0 34.2-.2 9.8-.7 19.6-1.3 29.4-.8 12.4-1.9 24.9-2.6 37.3-.3 5.7-.5 11.6.2 17.3.5 3.9-1.6 4.9-4.1 5.6-2.7.8-5.4 1.8-7.4-2.3-6.9-14.7-8.6-30.3-9.2-46.2-.1-1.8.2-3.8-.4-5.5-5.9-17.9-5-36.4-5.3-54.9-.1-4.8-.7-9.6-1.6-14.3-1.8-9.8-4-19.5-6.1-29.3-.2-1-.8-1.9-2.4-2.7 0 1.8-.3 3.7.1 5.5 1.4 7.2 3.2 14.3 4.4 21.5 1.3 7.5 2.3 15 2.9 22.6.6 7.3.2 14.4.2 21.8zM179 343.8c-5.8-13.8-11.5-27.7-17.4-41.5-1.4-3.4-.8-5.4 2.7-7.1 14.7-7 29.4-14 43.9-21.3 4.5-2.3 8.6-5.5 13.5-8.7 2.1 8.4 2.6 15.9-.1 22.7-6.4 16-13.6 31.7-20.8 47.4-2.3 5-5.4 9.5-8.5 14.9-3.3-1.5-6.5-3-9.5-4.4.2-1 .2-1.4.3-1.6 11.5-14.6 10.5-32.3 12-49.4.3-3.9.7-7.7 1-11.6l-1.5-.3c-.5 1.9-1.3 3.7-1.5 5.6-1.1 10.3-2.8 20.5-2.8 30.8 0 10-6.4 16.4-11.3 24.5zM179.2 82.2c-2.1-3.3-4.1-5.8-5.4-8.7-1.4-2.9-2.1-6.1-3.1-9.3-2.2-.6-5.1.9-6.9-2.1-2.5-4.1-4-7.4-4.1-12.1 0-.6.2-1.7 1-1.8 1.9-.1 5.6 3.3 5.6 3.3-.8-2.2-.8-4-1.6-4.4-3.8-2-3.4-5.5-3.2-8.7.4-5.6.6-11.3 1.8-16.8 2.7-12.7 17.9-17.8 27.8-9.5 5 4.2 8.6 9.3 9.6 16 .7 5.1 2 10.1 3.1 15.4-1.7.6-3.4.8-4.4 1.7-1.5 1.4-3.3 3.3-3.4 5.1-.1 4.1.4 8.3 1.2 12.3.8 3.6-.8 5.6-3.6 6.3-5.2 1.4-8.9 3.7-10.2 9.4-.4 1.6-2.9 2.7-4.2 3.9zm13.6-35.3c-3.1-5-10.8-5.6-14.5-1.5 4.8.5 9.5 1 14.5 1.5zM194.2 184.1c5.4-1 9.5-1.7 13.6-2.4-.1-.3-.2-.7-.3-1 2 .6 3.9 1.8 5.9 1.8 4.3.2 5.4 2.5 6 6.2 1.8 10.3 4.2 20.5 6.1 30.8.6 3.1.3 6.3.3 9.4 0 4.6-.7 9.4-.1 13.9 1.4 10.7-3.8 17.8-11.6 23.7-2 1.5-4.1 2.8-6.6 4.6-4.5-29.5-9-58.8-13.3-87zM209.5 109.2c3.1 1.4 5.9 2.5 8.6 3.7l.9-1.2c-4-5.5-8-10.9-12-16.4.3-.3.7-.6 1-.9 6.9 3.8 14.3 7.5 17.2 15.3 5.1 13.9 9.5 28 13.6 42.2 1.2 4.2.9 9 .3 13.4-.9 7.9-11.8 16-19.8 15.5-.4-1.4-.7-2.8-1.4-5.4-1.2 2.3-1.8 3.5-2.4 4.7-5.5-.5-6.1-1.7-5.7-6.7.4-5.7.1-11.5.1-17.6 13.1-1.7 7.8 9.1 9.3 16 4-5 2.3-9.6 1.5-14.4 2.9-.9 5.8-1.7 8.6-2.6-.1-.4-.1-.8-.2-1.3h-10.8c.7-9 1.3-17.5 2-26-.7-.1-1.5-.2-2.2-.3-.9 8.5-1.7 16.9-2.6 25.7-2.1 0-3.7.1-5.3 0-5.8-.4-6.5-1.3-5.4-7 1.3-7.2 2.8-14.4 3.9-21.6.4-2.6.7-5.6-.3-7.8-1.8-3.4-1.1-5.4 1.1-7.3zM149.2 279.4c1.6 6.7 3 13.4 4.9 20 2 7 3.9 14.1 6.7 20.7 2.9 6.8 7.1 13.1 10.4 19.8 4.4 8.8.1 19.9-8.1 25.3-6.1 4-11 2.6-15.8-1-1.6-1.2-2-4.8-2-7.3.5-20.9 1.3-41.9 1.9-62.8.1-4.8 0-9.6 0-14.4.8-.1 1.4-.2 2-.3zM214.8 315.8c.8 3.7 1.6 7.3 2.4 11 2.8 13.8 5.4 27.7 8.4 41.5 1 4.4-.8 7-3.9 9.3-5 3.6-10 7.1-15.9 10 .7-1.1 1.5-2.1 2-3.3 1.4-3.3 3-6.6 3.9-10.1.2-.9-1.8-2.6-2.9-3.7-6.8-6.7-6.8-15.3-6.8-23.9 0-.4.7-.9.6-1.3-2.3-12.3 9.7-18.9 10.9-29.8.5.1.9.2 1.3.3zM184.3 403.2c-6.3 3.8-12.7 7.7-20.2 12.2 1.2-1.6 1.7-2.2 2.2-2.9 4.8-6.1 5.1-12 1.4-18.9-.7-1.3-.9-3-1.6-5.6 2.3 1.9 3.6 3.8 4.7 3.7 1.2-.1 2.5-1.8 3.3-3 1.2-1.9 2.5-4 2.8-6.1.5-3.2.1-6.5.1-9.8-.5-.1-1-.1-1.5-.2 3.7-5 7.4-10 11.5-15.7 3.6 6 6.9 11.2 10.1 16.5.1.2.2.7 0 .9-3.7 4.6-2.4 11.6-7.8 15.6-3.9 3-6.9 7-5 13.3z"/><path class="st0" d="M167.4 66.8c1.9 18.3 10.7 27.1 25 24.7-1.1 3-1.7 5.7-3.1 7.9-3.1 4.9-14.1 8.7-19.7 7.2-5.9-1.5-8.2-9.1-6.6-14.8 1.9-6.7 1.9-14 2.7-21 .2-1.4.2-2.8.4-4.2.3 0 .8.1 1.3.2zM193 152.1c.8-15.8 1.5-31.6 2.3-48.2 12.2 9.8 11.9 21.1 8.4 33.2-.6 2.1-1.4 4.2-1.3 6.3 0 6.2-3.4 8.5-9.4 8.7z"/><path class="st0" d="M164.1 79.5c-1.6 3.9-2.8 8.1-4.9 11.7-2.9 5-1.8 17.3 2.4 22.7 5.4 6.9 9.9 14.4 10.5 23.6-2.5-5.6-4.9-11.2-7.4-16.7-3.7-8.1-9.8-9.7-16.9-4.7-1.6 1.1-3.5 1.7-6.6 3 3.1-6.5 5.7-11.8 9-18.6.4 4.4.7 7.3.9 10.2.6.1 1.3.2 1.9.3.6-11.6-.8-23.8 8.9-32.3.7.4 1.4.6 2.2.8zM193.9 178.3c2.2-1 6.3-1.6 8.5-2.6-.1-.5-.3-1-.4-1.4-2.4.4-7.3 2.4-8.6 1.6-2.5-7 7.1-3.2 7.8-7.5-1.8-.1-6.5 1.6-6.9.2-2.6-5.6 5.6-6.9 6.9-11.1-2.9 0-12.3 9.8-12.3 2.1 3.7-3.9 11.1-7.1 14.4-5.4 2.2 1.1 4 4.9 4.2 7.6.3 4.9-.3 9.9-1.5 14.7-1.6 5.4-7.4 5.7-12.1 1.8z"/><path class="st0" d="M176.4 167.2c7 .5 10.3.3 16.3-3.6-.5 3.7-.6 7.6-1.8 11.1-.6 1.9-2.9 4-4.7 4.5-1.6.4-4.4-1-5.4-2.5-1.9-2.8-2.9-6.1-4.4-9.5zM126.6 120.2c-8.4 30.8-5.4 60 10.6 88.1-1.4-1.6-3.1-2.9-4.1-4.7-10.4-18.6-13.2-38.9-12.9-59.7.1-8 2.5-15.9 3.9-23.8.8 0 1.6 0 2.5.1zM157.1 294.8c-2.5-6.4-5.5-12.7-7.3-19.3-2-7.5-3.1-15.2-4.2-22.9-1.6-10.6-2.8-21.3-4.1-32-.3-2.7-.4-5.5-.6-8.3.4-.1.9-.1 1.3-.2.3 1.6.5 3.3.8 4.9 1 5.9 2.2 11.7 3.1 17.6.7 4.9 1.4 9.8 1.6 14.8.7 13.6 2.9 26.7 8.7 39.1.9 1.9.8 4.4 1.2 6.6-.2-.1-.3-.2-.5-.3zM186.6 84.4c.3-1 .7-1.8.8-2.7.2-2.4-.5-5.9.8-6.9 1.9-1.6 5.3-1.9 7.9-1.7.9.1 2.6 3.8 2.1 5.2-1.9 5-5.3 8.3-11.6 6.1zM197.7 87.7c2.9 5.2 6 10.2 8.5 15.6.9 1.9 0 4.5-.6 6.8-7.8-7.2-11.6-19.3-7.9-22.4zM153.1 78.1V56.6c7.7 7.3 7.8 15.3 0 21.5zM197.9 52.2c0-3.8 2.5-5.3 3.4-5.4.8-.1 3.1-2.1 2.1 4.7-.6 7-1.1 13.8-1.7 20.7-.8 0-1.5-.1-2.3-.1.1-1.7.2-3.4.2-5.1.1-1.6.4-3.2.2-4.7-.4-3.2-1.2-6.4-1.9-10.1zM153.2 422.2c-1-7.4-1.8-13.6-2.7-19.9 2.2 5.8.9 13.2 10.2 15.2-2.4 1.6-4.3 2.7-7.5 4.7zM157.7 299c2.3 7.1 4.6 14.3 6.9 21.4-.4.1-.8.3-1.2.4-2.4-7.1-4.9-14.2-7.3-21.3.5-.1 1-.3 1.6-.5zM198.9 356.8c3.9 5-.1 6.7-3.2 9.2-4.5-5.5 3.8-5.6 3.2-9.2zM180.1 347.5c3.9 2 6.6 3.3 10.8 5.4-2.1.7-3.5 1.7-4.3 1.4-2.7-1.1-6.3-1.6-6.5-6.8zM161.4 15.3c-1.1 8-2.1 15.5-3.2 23.4-.8-8.2-1.1-15.9 3.2-23.4zM169.1 365.5c3.1-7.3 5.7-13.6 8.1-19.2 1.5 7-3.4 12.5-8.1 19.2zM161.5 399.4c-.7 3.9-1.2 6.2-1.9 10-1.8-2.5-3.9-4.4-3.6-5.4.6-1.6 2.8-2.5 5.5-4.6z"/><path d="M192.3 45.8c.4.5 0 1.3-.6 1.3-2.3 0-4.2-1.5-6.3-1.7-3.6-.3-6.3.8-7.1 0 3.3-3.7 11.5-2.9 14 .4z"/></g><path d="M176.8 167.2c.5.3 1.2.4 1.8.5 3.9.5 8.1.3 11.5-1.8.7-.4 1.4-.9 1.7-1.7" fill="none" stroke="#000" stroke-linecap="round" stroke-linejoin="round" stroke-miterlimit="10" id="Слой_5"/><g id="Слой_4"><path class="st2" d="M197.8 123c.8.1 1.7.2 2.5.4M168.8 171.7v2.5c.5-.7.9-1.3 1.4-2-.3-.2-.6-.3-.9-.5-.2.1-.2.3-.1.5M168.3 210.2c0 .6 0 1.2.1 1.8.5-.1.8-.5 1-1 .1-.2.3-.5.3-.8s-.4-.5-.6-.3M166.2 247.3c0 .5 0 1.1.1 1.6.2.3.7.1.9-.2.2-.3.2-.7.1-1s0-.7.2-1c-.2-.1-.5 0-.7.2"/></g><g id="Слой_2"><path class="st2" d="M190.3 77.1l4.5-.6M190.7 64.8c.3.7.8 1.4 1.5 1.7M188.3 49c-1-.3-1.8-.9-2.9-1-1.5-.2-3.2-.1-4.3.7M185.7 49.7c-.4.3-.9.3-1.3.1.4-.3.9-.5 1.4-.5M204.4 49.7c-.7-.3-1.3-.9-2.1-1-1.1-.2-2.4-.1-3.2.7M202.1 50.2c-.2.2-.4.2-.6 0 .2-.2.4-.3.6-.3"/></g><path class="st2" d="M164.7 55.5c0 .9.3 1.9.8 2.7.2.3.5.6.8.7" id="Слой_3"/></g></switch></svg>