<?xml version="1.0" standalone="no"?>
<!DOCTYPE svg PUBLIC "-//W3C//DTD SVG 20010904//EN"
 "http://www.w3.org/TR/2001/REC-SVG-20010904/DTD/svg10.dtd">
<svg version="1.0" xmlns="http://www.w3.org/2000/svg"
 width="700.000000pt" height="700.000000pt" viewBox="0 0 700.000000 700.000000"
 preserveAspectRatio="xMidYMid meet">
<metadata>
Created by potrace 1.11, written by Peter Selinger 2001-2013
</metadata>
<g transform="translate(0.000000,700.000000) scale(0.100000,-0.100000)"
fill="#000000" stroke="none">
<path d="M1089 6690 c-65 -34 -108 -99 -113 -170 -5 -79 18 -115 188 -288 89
-90 180 -175 202 -188 163 -96 357 62 295 240 -13 38 -48 79 -186 218 -104
104 -186 178 -210 189 -52 24 -130 24 -176 -1z"/>
<path d="M5735 6691 c-49 -22 -367 -338 -390 -388 -21 -43 -21 -119 -1 -167
45 -108 186 -154 287 -93 53 31 349 329 373 375 85 165 -98 352 -269 273z"/>
<path d="M3417 6443 c-1 0 -43 -4 -92 -7 -50 -4 -99 -8 -110 -10 -11 -2 -42
-7 -69 -10 -277 -38 -613 -164 -861 -324 -389 -250 -687 -606 -868 -1037 -52
-125 -115 -331 -131 -435 -3 -19 -7 -44 -10 -55 -47 -233 -36 -629 25 -880
131 -541 424 -987 864 -1314 135 -100 212 -197 260 -325 33 -89 45 -158 50
-287 2 -63 6 -125 9 -139 3 -14 8 -38 12 -55 9 -43 50 -130 86 -184 50 -75
142 -156 226 -199 l77 -41 0 -138 c-1 -176 15 -265 68 -372 72 -148 215 -268
377 -315 276 -81 579 46 712 300 60 114 69 160 74 344 2 91 4 170 4 175 0 6
32 26 72 44 91 44 209 158 257 250 54 102 71 172 77 311 13 307 98 461 374
682 600 479 912 1201 848 1963 -25 304 -143 678 -293 935 -30 50 -145 222
-154 230 -3 3 -22 25 -41 50 -172 224 -452 452 -727 593 -235 120 -433 183
-723 231 -78 13 -384 28 -393 19z"/>
<path d="M176 4388 c-97 -14 -166 -88 -172 -182 -5 -97 44 -176 129 -207 35
-14 86 -16 297 -15 276 2 281 3 343 60 79 74 77 217 -5 293 -53 49 -87 55
-324 57 -121 0 -242 -2 -268 -6z"/>
<path d="M6375 4389 c-104 -8 -157 -43 -190 -123 -42 -99 0 -211 96 -262 30
-16 64 -18 288 -20 214 -2 261 1 299 15 75 27 132 109 132 190 0 76 -65 168
-136 191 -38 13 -369 19 -489 9z"/>
<path d="M1387 2342 c-22 -10 -105 -84 -194 -172 -170 -169 -201 -206 -208
-241 -3 -13 -7 -34 -9 -47 -3 -12 2 -45 10 -72 37 -126 183 -184 295 -117 60
36 355 336 374 380 72 173 -100 346 -268 269z"/>
<path d="M5445 2341 c-43 -19 -91 -68 -107 -110 -15 -40 -13 -112 6 -155 20
-47 312 -346 375 -384 100 -59 231 -19 286 88 23 43 23 126 0 174 -23 48 -345
367 -392 388 -49 23 -118 22 -168 -1z"/>
</g>
</svg>
